ISO-10303-21;
HEADER;
FILE_DESCRIPTION(('STEP AP242'),'1');
FILE_NAME('10429532.stp','2025-05-16T09:36:08',('TraceParts'),('TraceParts S.A.'),'Spatial InterOp 3D',' ',' ');
FILE_SCHEMA(('AP242_MANAGED_MODEL_BASED_3D_ENGINEERING_MIM_LF  {1 0 10303 442 1 1 4}'));
ENDSEC;
DATA;
#1=PRODUCT_DEFINITION_CONTEXT('',#9,'design');
#2=APPLICATION_PROTOCOL_DEFINITION('INTERNATIONAL STANDARD','ap242_managed_model_based_3d_engineering',2014,#9);
#3=PRODUCT_CATEGORY_RELATIONSHIP('NONE','NONE',#10,#11);
#4=SHAPE_DEFINITION_REPRESENTATION(#12,#13);
#5= (GEOMETRIC_REPRESENTATION_CONTEXT(3)GLOBAL_UNCERTAINTY_ASSIGNED_CONTEXT((#16))GLOBAL_UNIT_ASSIGNED_CONTEXT((#18,#19,#20))REPRESENTATION_CONTEXT('NONE','WORKSPACE'));
#9=APPLICATION_CONTEXT('managed model based 3d engineering');
#10=PRODUCT_CATEGORY('part','NONE');
#11=PRODUCT_RELATED_PRODUCT_CATEGORY('detail',' ',(#22));
#12=PRODUCT_DEFINITION_SHAPE('NONE','NONE',#23);
#13=ADVANCED_BREP_SHAPE_REPRESENTATION('10429532',(#24,#25),#5);
#16=UNCERTAINTY_MEASURE_WITH_UNIT(LENGTH_MEASURE(1.0E-06),#18,'','');
#18= (CONVERSION_BASED_UNIT('MILLIMETRE',#28)LENGTH_UNIT()NAMED_UNIT(#31));
#19= (NAMED_UNIT(#33)PLANE_ANGLE_UNIT()SI_UNIT($,.RADIAN.));
#20= (NAMED_UNIT(#33)SOLID_ANGLE_UNIT()SI_UNIT($,.STERADIAN.));
#22=PRODUCT('10429532','10429532','PART-10429532-DESC',(#39));
#23=PRODUCT_DEFINITION('','NONE',#40,#1);
#24=MANIFOLD_SOLID_BREP('10429532',#41);
#25=AXIS2_PLACEMENT_3D('',#42,#43,#44);
#28=LENGTH_MEASURE_WITH_UNIT(LENGTH_MEASURE(1.0),#45);
#31=DIMENSIONAL_EXPONENTS(1.0,0.0,0.0,0.0,0.0,0.0,0.0);
#33=DIMENSIONAL_EXPONENTS(0.0,0.0,0.0,0.0,0.0,0.0,0.0);
#39=PRODUCT_CONTEXT('',#9,'mechanical');
#40=PRODUCT_DEFINITION_FORMATION_WITH_SPECIFIED_SOURCE(' ','NONE',#22,.NOT_KNOWN.);
#41=CLOSED_SHELL('',(#46,#47,#48,#49,#50,#51,#52,#53,#54,#55,#56,#57,#58,#59,#60,#61,#62,#63,#64,#65,#66,#67,#68,#69,#70,#71,#72,#73,#74,#75,#76,#77,#78,#79,#80,#81,#82,#83,#84,#85,#86,#87,#88,#89,#90,#91,#92,#93,#94,#95,#96,#97,#98,#99,#100,#101,#102,#103,#104,#105,#106,#107,#108,#109,#110,#111));
#42=CARTESIAN_POINT('',(0.0,0.0,0.0));
#43=DIRECTION('',(0.0,0.0,1.0));
#44=DIRECTION('',(1.0,0.0,0.0));
#45= (NAMED_UNIT(#31)LENGTH_UNIT()SI_UNIT(.MILLI.,.METRE.));
#46=ADVANCED_FACE('NONE',(#113),#114,.F.);
#47=ADVANCED_FACE('NONE',(#115),#116,.F.);
#48=ADVANCED_FACE('NONE',(#117),#118,.F.);
#49=ADVANCED_FACE('NONE',(#119),#120,.F.);
#50=ADVANCED_FACE('NONE',(#121),#122,.F.);
#51=ADVANCED_FACE('NONE',(#123),#124,.F.);
#52=ADVANCED_FACE('NONE',(#125),#126,.F.);
#53=ADVANCED_FACE('NONE',(#127),#128,.F.);
#54=ADVANCED_FACE('NONE',(#129),#130,.F.);
#55=ADVANCED_FACE('NONE',(#131),#132,.F.);
#56=ADVANCED_FACE('NONE',(#133),#134,.F.);
#57=ADVANCED_FACE('NONE',(#135),#136,.F.);
#58=ADVANCED_FACE('NONE',(#137),#138,.F.);
#59=ADVANCED_FACE('NONE',(#139),#140,.F.);
#60=ADVANCED_FACE('NONE',(#141),#142,.F.);
#61=ADVANCED_FACE('NONE',(#143),#144,.F.);
#62=ADVANCED_FACE('NONE',(#145),#146,.F.);
#63=ADVANCED_FACE('NONE',(#147),#148,.F.);
#64=ADVANCED_FACE('NONE',(#149),#150,.F.);
#65=ADVANCED_FACE('NONE',(#151),#152,.F.);
#66=ADVANCED_FACE('NONE',(#153),#154,.F.);
#67=ADVANCED_FACE('NONE',(#155),#156,.F.);
#68=ADVANCED_FACE('NONE',(#157),#158,.F.);
#69=ADVANCED_FACE('NONE',(#159),#160,.F.);
#70=ADVANCED_FACE('NONE',(#161),#162,.F.);
#71=ADVANCED_FACE('NONE',(#163),#164,.F.);
#72=ADVANCED_FACE('NONE',(#165),#166,.F.);
#73=ADVANCED_FACE('NONE',(#167),#168,.F.);
#74=ADVANCED_FACE('NONE',(#169),#170,.F.);
#75=ADVANCED_FACE('NONE',(#171),#172,.F.);
#76=ADVANCED_FACE('NONE',(#173,#174),#175,.T.);
#77=ADVANCED_FACE('NONE',(#176),#177,.F.);
#78=ADVANCED_FACE('NONE',(#178),#179,.F.);
#79=ADVANCED_FACE('NONE',(#180),#181,.F.);
#80=ADVANCED_FACE('NONE',(#182),#183,.F.);
#81=ADVANCED_FACE('NONE',(#184),#185,.F.);
#82=ADVANCED_FACE('NONE',(#186),#187,.F.);
#83=ADVANCED_FACE('NONE',(#188),#189,.F.);
#84=ADVANCED_FACE('NONE',(#190),#191,.F.);
#85=ADVANCED_FACE('NONE',(#192,#193),#194,.F.);
#86=ADVANCED_FACE('NONE',(#195),#196,.F.);
#87=ADVANCED_FACE('NONE',(#197),#198,.F.);
#88=ADVANCED_FACE('NONE',(#199),#200,.F.);
#89=ADVANCED_FACE('NONE',(#201),#202,.F.);
#90=ADVANCED_FACE('NONE',(#203),#204,.F.);
#91=ADVANCED_FACE('NONE',(#205),#206,.F.);
#92=ADVANCED_FACE('NONE',(#207),#208,.F.);
#93=ADVANCED_FACE('NONE',(#209),#210,.F.);
#94=ADVANCED_FACE('NONE',(#211),#212,.F.);
#95=ADVANCED_FACE('NONE',(#213),#214,.F.);
#96=ADVANCED_FACE('NONE',(#215),#216,.F.);
#97=ADVANCED_FACE('NONE',(#217),#218,.F.);
#98=ADVANCED_FACE('NONE',(#219),#220,.F.);
#99=ADVANCED_FACE('NONE',(#221),#222,.F.);
#100=ADVANCED_FACE('NONE',(#223),#224,.F.);
#101=ADVANCED_FACE('NONE',(#225),#226,.F.);
#102=ADVANCED_FACE('NONE',(#227),#228,.F.);
#103=ADVANCED_FACE('NONE',(#229),#230,.F.);
#104=ADVANCED_FACE('NONE',(#231),#232,.F.);
#105=ADVANCED_FACE('NONE',(#233),#234,.F.);
#106=ADVANCED_FACE('NONE',(#235),#236,.F.);
#107=ADVANCED_FACE('NONE',(#237),#238,.F.);
#108=ADVANCED_FACE('NONE',(#239),#240,.F.);
#109=ADVANCED_FACE('NONE',(#241),#242,.F.);
#110=ADVANCED_FACE('NONE',(#243),#244,.F.);
#111=ADVANCED_FACE('NONE',(#245),#246,.F.);
#113=FACE_OUTER_BOUND('',#247,.T.);
#114=CONICAL_SURFACE('',#248,1.500000048,1.04719754930438);
#115=FACE_OUTER_BOUND('',#249,.T.);
#116=CONICAL_SURFACE('',#250,1.500000048,1.04719754930438);
#117=FACE_OUTER_BOUND('',#251,.T.);
#118=CONICAL_SURFACE('',#252,1.500000048,1.04719754930438);
#119=FACE_OUTER_BOUND('',#253,.T.);
#120=CONICAL_SURFACE('',#254,1.500000048,1.04719754930438);
#121=FACE_OUTER_BOUND('',#255,.T.);
#122=CONICAL_SURFACE('',#256,1.500000048,1.04719754930438);
#123=FACE_OUTER_BOUND('',#257,.T.);
#124=CONICAL_SURFACE('',#258,1.500000048,1.04719754930438);
#125=FACE_OUTER_BOUND('',#259,.T.);
#126=CONICAL_SURFACE('',#260,1.500000048,1.04719754930438);
#127=FACE_OUTER_BOUND('',#261,.T.);
#128=CONICAL_SURFACE('',#262,1.500000048,1.04719754930438);
#129=FACE_OUTER_BOUND('',#263,.T.);
#130=CONICAL_SURFACE('',#264,1.500000048,1.04719754930438);
#131=FACE_OUTER_BOUND('',#265,.T.);
#132=CONICAL_SURFACE('',#266,1.500000048,1.04719754930438);
#133=FACE_OUTER_BOUND('',#267,.T.);
#134=CONICAL_SURFACE('',#268,1.500000048,1.04719754930438);
#135=FACE_OUTER_BOUND('',#269,.T.);
#136=CONICAL_SURFACE('',#270,1.500000048,1.04719754930438);
#137=FACE_OUTER_BOUND('',#271,.T.);
#138=CONICAL_SURFACE('',#272,1.500000048,1.04719754930438);
#139=FACE_OUTER_BOUND('',#273,.T.);
#140=CONICAL_SURFACE('',#274,1.500000048,1.04719754930438);
#141=FACE_OUTER_BOUND('',#275,.T.);
#142=CONICAL_SURFACE('',#276,1.500000048,1.04719754930438);
#143=FACE_OUTER_BOUND('',#277,.T.);
#144=CONICAL_SURFACE('',#278,1.500000048,1.04719754930438);
#145=FACE_OUTER_BOUND('',#279,.T.);
#146=CONICAL_SURFACE('',#280,1.500000048,1.04719754930438);
#147=FACE_OUTER_BOUND('',#281,.T.);
#148=CONICAL_SURFACE('',#282,1.500000048,1.04719754930438);
#149=FACE_OUTER_BOUND('',#283,.T.);
#150=CONICAL_SURFACE('',#284,1.500000048,1.04719754930438);
#151=FACE_OUTER_BOUND('',#285,.T.);
#152=CONICAL_SURFACE('',#286,1.500000048,1.04719754930438);
#153=FACE_OUTER_BOUND('',#287,.T.);
#154=CONICAL_SURFACE('',#288,1.500000048,1.04719754930438);
#155=FACE_OUTER_BOUND('',#289,.T.);
#156=CONICAL_SURFACE('',#290,1.500000048,1.04719754930438);
#157=FACE_OUTER_BOUND('',#291,.T.);
#158=CONICAL_SURFACE('',#292,1.500000048,1.04719754930438);
#159=FACE_OUTER_BOUND('',#293,.T.);
#160=CONICAL_SURFACE('',#294,1.500000048,1.04719754930438);
#161=FACE_OUTER_BOUND('',#295,.T.);
#162=CONICAL_SURFACE('',#296,1.500000048,1.04719754930438);
#163=FACE_OUTER_BOUND('',#297,.T.);
#164=CONICAL_SURFACE('',#298,1.500000048,1.04719754930438);
#165=FACE_OUTER_BOUND('',#299,.T.);
#166=CONICAL_SURFACE('',#300,1.500000048,1.04719754930438);
#167=FACE_OUTER_BOUND('',#301,.T.);
#168=CONICAL_SURFACE('',#302,1.500000048,1.04719754930438);
#169=FACE_OUTER_BOUND('',#303,.T.);
#170=CONICAL_SURFACE('',#304,1.500000048,1.04719754930438);
#171=FACE_OUTER_BOUND('',#305,.T.);
#172=CONICAL_SURFACE('',#306,1.500000048,1.04719754930438);
#173=FACE_OUTER_BOUND('',#307,.T.);
#174=FACE_BOUND('',#308,.T.);
#175=PLANE('',#309);
#176=FACE_OUTER_BOUND('',#310,.T.);
#177=CONICAL_SURFACE('',#311,1.500000048,1.04719754930438);
#178=FACE_OUTER_BOUND('',#312,.T.);
#179=PLANE('',#313);
#180=FACE_OUTER_BOUND('',#314,.T.);
#181=PLANE('',#315);
#182=FACE_OUTER_BOUND('',#316,.T.);
#183=PLANE('',#317);
#184=FACE_OUTER_BOUND('',#318,.T.);
#185=PLANE('',#319);
#186=FACE_OUTER_BOUND('',#320,.T.);
#187=PLANE('',#321);
#188=FACE_OUTER_BOUND('',#322,.T.);
#189=PLANE('',#323);
#190=FACE_OUTER_BOUND('',#324,.T.);
#191=CONICAL_SURFACE('',#325,1.500000048,1.04719754930438);
#192=FACE_OUTER_BOUND('',#326,.T.);
#193=FACE_BOUND('',#327,.T.);
#194=PLANE('',#328);
#195=FACE_OUTER_BOUND('',#329,.T.);
#196=CONICAL_SURFACE('',#330,1.500000048,1.04719754930438);
#197=FACE_OUTER_BOUND('',#331,.T.);
#198=CONICAL_SURFACE('',#332,1.500000048,1.04719754930438);
#199=FACE_OUTER_BOUND('',#333,.T.);
#200=CONICAL_SURFACE('',#334,1.500000048,1.04719754930438);
#201=FACE_OUTER_BOUND('',#335,.T.);
#202=CONICAL_SURFACE('',#336,1.500000048,1.04719754930438);
#203=FACE_OUTER_BOUND('',#337,.T.);
#204=CONICAL_SURFACE('',#338,1.500000048,1.04719754930438);
#205=FACE_OUTER_BOUND('',#339,.T.);
#206=CONICAL_SURFACE('',#340,1.500000048,1.04719754930438);
#207=FACE_OUTER_BOUND('',#341,.T.);
#208=CONICAL_SURFACE('',#342,1.500000048,1.04719754930438);
#209=FACE_OUTER_BOUND('',#343,.T.);
#210=CONICAL_SURFACE('',#344,1.500000048,1.04719754930438);
#211=FACE_OUTER_BOUND('',#345,.T.);
#212=CONICAL_SURFACE('',#346,1.500000048,1.04719754930438);
#213=FACE_OUTER_BOUND('',#347,.T.);
#214=CONICAL_SURFACE('',#348,1.500000048,1.04719754930438);
#215=FACE_OUTER_BOUND('',#349,.T.);
#216=CONICAL_SURFACE('',#350,1.500000048,1.04719754930438);
#217=FACE_OUTER_BOUND('',#351,.T.);
#218=CONICAL_SURFACE('',#352,1.500000048,1.04719754930438);
#219=FACE_OUTER_BOUND('',#353,.T.);
#220=CONICAL_SURFACE('',#354,1.500000048,1.04719754930438);
#221=FACE_OUTER_BOUND('',#355,.T.);
#222=CONICAL_SURFACE('',#356,1.500000048,1.04719754930438);
#223=FACE_OUTER_BOUND('',#357,.T.);
#224=CONICAL_SURFACE('',#358,1.500000048,1.04719754930438);
#225=FACE_OUTER_BOUND('',#359,.T.);
#226=CONICAL_SURFACE('',#360,1.500000048,1.04719754930438);
#227=FACE_OUTER_BOUND('',#361,.T.);
#228=CONICAL_SURFACE('',#362,1.500000048,1.04719754930438);
#229=FACE_OUTER_BOUND('',#363,.T.);
#230=CONICAL_SURFACE('',#364,1.500000048,1.04719754930438);
#231=FACE_OUTER_BOUND('',#365,.T.);
#232=CONICAL_SURFACE('',#366,1.500000048,1.04719754930438);
#233=FACE_OUTER_BOUND('',#367,.T.);
#234=CONICAL_SURFACE('',#368,1.500000048,1.04719754930438);
#235=FACE_OUTER_BOUND('',#369,.T.);
#236=CONICAL_SURFACE('',#370,1.500000048,1.04719754930438);
#237=FACE_OUTER_BOUND('',#371,.T.);
#238=CONICAL_SURFACE('',#372,1.500000048,1.04719754930438);
#239=FACE_OUTER_BOUND('',#373,.T.);
#240=CONICAL_SURFACE('',#374,1.500000048,1.04719754930438);
#241=FACE_OUTER_BOUND('',#375,.T.);
#242=CONICAL_SURFACE('',#376,1.500000048,1.04719754930438);
#243=FACE_OUTER_BOUND('',#377,.T.);
#244=CONICAL_SURFACE('',#378,1.500000048,1.04719754930438);
#245=FACE_OUTER_BOUND('',#379,.T.);
#246=CONICAL_SURFACE('',#380,1.500000048,1.04719754930438);
#247=EDGE_LOOP('',(#381,#382,#383,#384));
#248=AXIS2_PLACEMENT_3D('',#385,#386,#387);
#249=EDGE_LOOP('',(#388,#389,#390,#391));
#250=AXIS2_PLACEMENT_3D('',#392,#393,#394);
#251=EDGE_LOOP('',(#395,#396,#397,#398));
#252=AXIS2_PLACEMENT_3D('',#399,#400,#401);
#253=EDGE_LOOP('',(#402,#403,#404,#405));
#254=AXIS2_PLACEMENT_3D('',#406,#407,#408);
#255=EDGE_LOOP('',(#409,#410,#411,#412,#413));
#256=AXIS2_PLACEMENT_3D('',#414,#415,#416);
#257=EDGE_LOOP('',(#417,#418,#419,#420));
#258=AXIS2_PLACEMENT_3D('',#421,#422,#423);
#259=EDGE_LOOP('',(#424,#425,#426,#427,#428));
#260=AXIS2_PLACEMENT_3D('',#429,#430,#431);
#261=EDGE_LOOP('',(#432,#433,#434,#435,#436));
#262=AXIS2_PLACEMENT_3D('',#437,#438,#439);
#263=EDGE_LOOP('',(#440,#441,#442,#443));
#264=AXIS2_PLACEMENT_3D('',#444,#445,#446);
#265=EDGE_LOOP('',(#447,#448,#449,#450,#451));
#266=AXIS2_PLACEMENT_3D('',#452,#453,#454);
#267=EDGE_LOOP('',(#455,#456,#457,#458));
#268=AXIS2_PLACEMENT_3D('',#459,#460,#461);
#269=EDGE_LOOP('',(#462,#463,#464,#465,#466));
#270=AXIS2_PLACEMENT_3D('',#467,#468,#469);
#271=EDGE_LOOP('',(#470,#471,#472,#473,#474));
#272=AXIS2_PLACEMENT_3D('',#475,#476,#477);
#273=EDGE_LOOP('',(#478,#479,#480,#481,#482));
#274=AXIS2_PLACEMENT_3D('',#483,#484,#485);
#275=EDGE_LOOP('',(#486,#487,#488,#489,#490));
#276=AXIS2_PLACEMENT_3D('',#491,#492,#493);
#277=EDGE_LOOP('',(#494,#495,#496,#497));
#278=AXIS2_PLACEMENT_3D('',#498,#499,#500);
#279=EDGE_LOOP('',(#501,#502,#503,#504,#505));
#280=AXIS2_PLACEMENT_3D('',#506,#507,#508);
#281=EDGE_LOOP('',(#509,#510,#511,#512));
#282=AXIS2_PLACEMENT_3D('',#513,#514,#515);
#283=EDGE_LOOP('',(#516,#517,#518,#519,#520));
#284=AXIS2_PLACEMENT_3D('',#521,#522,#523);
#285=EDGE_LOOP('',(#524,#525,#526,#527,#528));
#286=AXIS2_PLACEMENT_3D('',#529,#530,#531);
#287=EDGE_LOOP('',(#532,#533,#534,#535,#536));
#288=AXIS2_PLACEMENT_3D('',#537,#538,#539);
#289=EDGE_LOOP('',(#540,#541,#542,#543,#544));
#290=AXIS2_PLACEMENT_3D('',#545,#546,#547);
#291=EDGE_LOOP('',(#548,#549,#550,#551,#552));
#292=AXIS2_PLACEMENT_3D('',#553,#554,#555);
#293=EDGE_LOOP('',(#556,#557,#558,#559,#560));
#294=AXIS2_PLACEMENT_3D('',#561,#562,#563);
#295=EDGE_LOOP('',(#564,#565,#566,#567));
#296=AXIS2_PLACEMENT_3D('',#568,#569,#570);
#297=EDGE_LOOP('',(#571,#572,#573,#574,#575));
#298=AXIS2_PLACEMENT_3D('',#576,#577,#578);
#299=EDGE_LOOP('',(#579,#580,#581,#582));
#300=AXIS2_PLACEMENT_3D('',#583,#584,#585);
#301=EDGE_LOOP('',(#586,#587,#588,#589));
#302=AXIS2_PLACEMENT_3D('',#590,#591,#592);
#303=EDGE_LOOP('',(#593,#594,#595,#596));
#304=AXIS2_PLACEMENT_3D('',#597,#598,#599);
#305=EDGE_LOOP('',(#600,#601,#602,#603));
#306=AXIS2_PLACEMENT_3D('',#604,#605,#606);
#307=EDGE_LOOP('',(#607,#608,#609,#610,#611,#612));
#308=EDGE_LOOP('',(#613,#614));
#309=AXIS2_PLACEMENT_3D('',#615,#616,#617);
#310=EDGE_LOOP('',(#618,#619,#620,#621));
#311=AXIS2_PLACEMENT_3D('',#622,#623,#624);
#312=EDGE_LOOP('',(#625,#626,#627,#628));
#313=AXIS2_PLACEMENT_3D('',#629,#630,#631);
#314=EDGE_LOOP('',(#632,#633,#634,#635));
#315=AXIS2_PLACEMENT_3D('',#636,#637,#638);
#316=EDGE_LOOP('',(#639,#640,#641,#642));
#317=AXIS2_PLACEMENT_3D('',#643,#644,#645);
#318=EDGE_LOOP('',(#646,#647,#648,#649));
#319=AXIS2_PLACEMENT_3D('',#650,#651,#652);
#320=EDGE_LOOP('',(#653,#654,#655,#656));
#321=AXIS2_PLACEMENT_3D('',#657,#658,#659);
#322=EDGE_LOOP('',(#660,#661,#662,#663));
#323=AXIS2_PLACEMENT_3D('',#664,#665,#666);
#324=EDGE_LOOP('',(#667,#668,#669,#670));
#325=AXIS2_PLACEMENT_3D('',#671,#672,#673);
#326=EDGE_LOOP('',(#674,#675,#676,#677,#678,#679));
#327=EDGE_LOOP('',(#680,#681));
#328=AXIS2_PLACEMENT_3D('',#682,#683,#684);
#329=EDGE_LOOP('',(#685,#686,#687,#688));
#330=AXIS2_PLACEMENT_3D('',#689,#690,#691);
#331=EDGE_LOOP('',(#692,#693,#694,#695,#696));
#332=AXIS2_PLACEMENT_3D('',#697,#698,#699);
#333=EDGE_LOOP('',(#700,#701,#702,#703));
#334=AXIS2_PLACEMENT_3D('',#704,#705,#706);
#335=EDGE_LOOP('',(#707,#708,#709,#710,#711));
#336=AXIS2_PLACEMENT_3D('',#712,#713,#714);
#337=EDGE_LOOP('',(#715,#716,#717,#718,#719));
#338=AXIS2_PLACEMENT_3D('',#720,#721,#722);
#339=EDGE_LOOP('',(#723,#724,#725,#726));
#340=AXIS2_PLACEMENT_3D('',#727,#728,#729);
#341=EDGE_LOOP('',(#730,#731,#732,#733,#734));
#342=AXIS2_PLACEMENT_3D('',#735,#736,#737);
#343=EDGE_LOOP('',(#738,#739,#740,#741));
#344=AXIS2_PLACEMENT_3D('',#742,#743,#744);
#345=EDGE_LOOP('',(#745,#746,#747,#748,#749));
#346=AXIS2_PLACEMENT_3D('',#750,#751,#752);
#347=EDGE_LOOP('',(#753,#754,#755,#756,#757));
#348=AXIS2_PLACEMENT_3D('',#758,#759,#760);
#349=EDGE_LOOP('',(#761,#762,#763,#764,#765));
#350=AXIS2_PLACEMENT_3D('',#766,#767,#768);
#351=EDGE_LOOP('',(#769,#770,#771,#772,#773));
#352=AXIS2_PLACEMENT_3D('',#774,#775,#776);
#353=EDGE_LOOP('',(#777,#778,#779,#780));
#354=AXIS2_PLACEMENT_3D('',#781,#782,#783);
#355=EDGE_LOOP('',(#784,#785,#786,#787,#788));
#356=AXIS2_PLACEMENT_3D('',#789,#790,#791);
#357=EDGE_LOOP('',(#792,#793,#794,#795));
#358=AXIS2_PLACEMENT_3D('',#796,#797,#798);
#359=EDGE_LOOP('',(#799,#800,#801,#802,#803));
#360=AXIS2_PLACEMENT_3D('',#804,#805,#806);
#361=EDGE_LOOP('',(#807,#808,#809,#810,#811));
#362=AXIS2_PLACEMENT_3D('',#812,#813,#814);
#363=EDGE_LOOP('',(#815,#816,#817,#818,#819));
#364=AXIS2_PLACEMENT_3D('',#820,#821,#822);
#365=EDGE_LOOP('',(#823,#824,#825,#826,#827));
#366=AXIS2_PLACEMENT_3D('',#828,#829,#830);
#367=EDGE_LOOP('',(#831,#832,#833,#834,#835));
#368=AXIS2_PLACEMENT_3D('',#836,#837,#838);
#369=EDGE_LOOP('',(#839,#840,#841,#842,#843));
#370=AXIS2_PLACEMENT_3D('',#844,#845,#846);
#371=EDGE_LOOP('',(#847,#848,#849,#850));
#372=AXIS2_PLACEMENT_3D('',#851,#852,#853);
#373=EDGE_LOOP('',(#854,#855,#856,#857,#858));
#374=AXIS2_PLACEMENT_3D('',#859,#860,#861);
#375=EDGE_LOOP('',(#862,#863,#864,#865));
#376=AXIS2_PLACEMENT_3D('',#866,#867,#868);
#377=EDGE_LOOP('',(#869,#870,#871,#872));
#378=AXIS2_PLACEMENT_3D('',#873,#874,#875);
#379=EDGE_LOOP('',(#876,#877,#878,#879));
#380=AXIS2_PLACEMENT_3D('',#880,#881,#882);
#381=ORIENTED_EDGE('',*,*,#883,.T.);
#382=ORIENTED_EDGE('',*,*,#884,.T.);
#383=ORIENTED_EDGE('',*,*,#885,.T.);
#384=ORIENTED_EDGE('',*,*,#886,.F.);
#385=CARTESIAN_POINT('',(0.0,0.0,10.668));
#386=DIRECTION('',(-0.0,-0.0,1.0));
#387=DIRECTION('',(1.0,0.0,0.0));
#388=ORIENTED_EDGE('',*,*,#883,.F.);
#389=ORIENTED_EDGE('',*,*,#887,.T.);
#390=ORIENTED_EDGE('',*,*,#888,.T.);
#391=ORIENTED_EDGE('',*,*,#889,.F.);
#392=CARTESIAN_POINT('',(0.0,0.0,10.668));
#393=DIRECTION('',(-0.0,-0.0,-1.0));
#394=DIRECTION('',(-1.0,0.0,0.0));
#395=ORIENTED_EDGE('',*,*,#890,.T.);
#396=ORIENTED_EDGE('',*,*,#891,.T.);
#397=ORIENTED_EDGE('',*,*,#888,.F.);
#398=ORIENTED_EDGE('',*,*,#892,.F.);
#399=CARTESIAN_POINT('',(0.0,0.0,9.906));
#400=DIRECTION('',(-0.0,-0.0,1.0));
#401=DIRECTION('',(1.0,0.0,0.0));
#402=ORIENTED_EDGE('',*,*,#890,.F.);
#403=ORIENTED_EDGE('',*,*,#893,.T.);
#404=ORIENTED_EDGE('',*,*,#894,.T.);
#405=ORIENTED_EDGE('',*,*,#895,.F.);
#406=CARTESIAN_POINT('',(0.0,0.0,9.906));
#407=DIRECTION('',(-0.0,-0.0,-1.0));
#408=DIRECTION('',(-1.0,0.0,0.0));
#409=ORIENTED_EDGE('',*,*,#896,.T.);
#410=ORIENTED_EDGE('',*,*,#897,.T.);
#411=ORIENTED_EDGE('',*,*,#898,.T.);
#412=ORIENTED_EDGE('',*,*,#899,.T.);
#413=ORIENTED_EDGE('',*,*,#900,.F.);
#414=CARTESIAN_POINT('',(0.0,0.0,0.0));
#415=DIRECTION('',(-0.0,-0.0,1.0));
#416=DIRECTION('',(1.0,0.0,0.0));
#417=ORIENTED_EDGE('',*,*,#901,.T.);
#418=ORIENTED_EDGE('',*,*,#902,.T.);
#419=ORIENTED_EDGE('',*,*,#894,.F.);
#420=ORIENTED_EDGE('',*,*,#903,.F.);
#421=CARTESIAN_POINT('',(0.0,0.0,9.144));
#422=DIRECTION('',(-0.0,-0.0,1.0));
#423=DIRECTION('',(1.0,0.0,0.0));
#424=ORIENTED_EDGE('',*,*,#904,.T.);
#425=ORIENTED_EDGE('',*,*,#905,.T.);
#426=ORIENTED_EDGE('',*,*,#898,.F.);
#427=ORIENTED_EDGE('',*,*,#906,.F.);
#428=ORIENTED_EDGE('',*,*,#907,.F.);
#429=CARTESIAN_POINT('',(0.0,0.0,0.762));
#430=DIRECTION('',(0.0,-0.0,-1.0));
#431=DIRECTION('',(0.0,1.0,0.0));
#432=ORIENTED_EDGE('',*,*,#901,.F.);
#433=ORIENTED_EDGE('',*,*,#908,.T.);
#434=ORIENTED_EDGE('',*,*,#909,.T.);
#435=ORIENTED_EDGE('',*,*,#910,.T.);
#436=ORIENTED_EDGE('',*,*,#911,.F.);
#437=CARTESIAN_POINT('',(0.0,0.0,9.144));
#438=DIRECTION('',(-0.0,-0.0,-1.0));
#439=DIRECTION('',(-1.0,0.0,0.0));
#440=ORIENTED_EDGE('',*,*,#904,.F.);
#441=ORIENTED_EDGE('',*,*,#912,.T.);
#442=ORIENTED_EDGE('',*,*,#913,.T.);
#443=ORIENTED_EDGE('',*,*,#914,.F.);
#444=CARTESIAN_POINT('',(0.0,0.0,0.762));
#445=DIRECTION('',(-0.0,0.0,1.0));
#446=DIRECTION('',(0.0,-1.0,0.0));
#447=ORIENTED_EDGE('',*,*,#915,.T.);
#448=ORIENTED_EDGE('',*,*,#916,.T.);
#449=ORIENTED_EDGE('',*,*,#917,.F.);
#450=ORIENTED_EDGE('',*,*,#910,.F.);
#451=ORIENTED_EDGE('',*,*,#918,.F.);
#452=CARTESIAN_POINT('',(0.0,0.0,8.382));
#453=DIRECTION('',(-0.0,0.0,1.0));
#454=DIRECTION('',(0.0,-1.0,0.0));
#455=ORIENTED_EDGE('',*,*,#919,.T.);
#456=ORIENTED_EDGE('',*,*,#920,.T.);
#457=ORIENTED_EDGE('',*,*,#913,.F.);
#458=ORIENTED_EDGE('',*,*,#921,.F.);
#459=CARTESIAN_POINT('',(0.0,0.0,1.524));
#460=DIRECTION('',(0.0,-0.0,-1.0));
#461=DIRECTION('',(0.0,1.0,0.0));
#462=ORIENTED_EDGE('',*,*,#915,.F.);
#463=ORIENTED_EDGE('',*,*,#922,.T.);
#464=ORIENTED_EDGE('',*,*,#923,.T.);
#465=ORIENTED_EDGE('',*,*,#924,.T.);
#466=ORIENTED_EDGE('',*,*,#925,.F.);
#467=CARTESIAN_POINT('',(0.0,0.0,8.382));
#468=DIRECTION('',(0.0,-0.0,-1.0));
#469=DIRECTION('',(0.0,1.0,0.0));
#470=ORIENTED_EDGE('',*,*,#919,.F.);
#471=ORIENTED_EDGE('',*,*,#926,.T.);
#472=ORIENTED_EDGE('',*,*,#927,.T.);
#473=ORIENTED_EDGE('',*,*,#928,.T.);
#474=ORIENTED_EDGE('',*,*,#929,.F.);
#475=CARTESIAN_POINT('',(0.0,0.0,1.524));
#476=DIRECTION('',(-0.0,0.0,1.0));
#477=DIRECTION('',(0.0,-1.0,0.0));
#478=ORIENTED_EDGE('',*,*,#930,.T.);
#479=ORIENTED_EDGE('',*,*,#931,.T.);
#480=ORIENTED_EDGE('',*,*,#923,.F.);
#481=ORIENTED_EDGE('',*,*,#932,.F.);
#482=ORIENTED_EDGE('',*,*,#933,.F.);
#483=CARTESIAN_POINT('',(0.0,0.0,7.62));
#484=DIRECTION('',(-0.0,-0.0,1.0));
#485=DIRECTION('',(1.0,0.0,0.0));
#486=ORIENTED_EDGE('',*,*,#934,.T.);
#487=ORIENTED_EDGE('',*,*,#935,.T.);
#488=ORIENTED_EDGE('',*,*,#936,.F.);
#489=ORIENTED_EDGE('',*,*,#928,.F.);
#490=ORIENTED_EDGE('',*,*,#937,.F.);
#491=CARTESIAN_POINT('',(0.0,0.0,2.286));
#492=DIRECTION('',(-0.0,-0.0,-1.0));
#493=DIRECTION('',(-1.0,0.0,0.0));
#494=ORIENTED_EDGE('',*,*,#930,.F.);
#495=ORIENTED_EDGE('',*,*,#938,.T.);
#496=ORIENTED_EDGE('',*,*,#939,.T.);
#497=ORIENTED_EDGE('',*,*,#940,.F.);
#498=CARTESIAN_POINT('',(0.0,0.0,7.62));
#499=DIRECTION('',(-0.0,-0.0,-1.0));
#500=DIRECTION('',(-1.0,0.0,0.0));
#501=ORIENTED_EDGE('',*,*,#934,.F.);
#502=ORIENTED_EDGE('',*,*,#941,.T.);
#503=ORIENTED_EDGE('',*,*,#942,.T.);
#504=ORIENTED_EDGE('',*,*,#943,.T.);
#505=ORIENTED_EDGE('',*,*,#944,.F.);
#506=CARTESIAN_POINT('',(0.0,0.0,2.286));
#507=DIRECTION('',(-0.0,-0.0,1.0));
#508=DIRECTION('',(1.0,0.0,0.0));
#509=ORIENTED_EDGE('',*,*,#945,.T.);
#510=ORIENTED_EDGE('',*,*,#946,.T.);
#511=ORIENTED_EDGE('',*,*,#939,.F.);
#512=ORIENTED_EDGE('',*,*,#947,.F.);
#513=CARTESIAN_POINT('',(0.0,0.0,6.858));
#514=DIRECTION('',(-0.0,-0.0,1.0));
#515=DIRECTION('',(1.0,0.0,0.0));
#516=ORIENTED_EDGE('',*,*,#948,.T.);
#517=ORIENTED_EDGE('',*,*,#949,.T.);
#518=ORIENTED_EDGE('',*,*,#942,.F.);
#519=ORIENTED_EDGE('',*,*,#950,.F.);
#520=ORIENTED_EDGE('',*,*,#951,.F.);
#521=CARTESIAN_POINT('',(0.0,0.0,3.048));
#522=DIRECTION('',(0.0,-0.0,-1.0));
#523=DIRECTION('',(0.0,1.0,0.0));
#524=ORIENTED_EDGE('',*,*,#945,.F.);
#525=ORIENTED_EDGE('',*,*,#952,.T.);
#526=ORIENTED_EDGE('',*,*,#953,.T.);
#527=ORIENTED_EDGE('',*,*,#954,.T.);
#528=ORIENTED_EDGE('',*,*,#955,.F.);
#529=CARTESIAN_POINT('',(0.0,0.0,6.858));
#530=DIRECTION('',(-0.0,-0.0,-1.0));
#531=DIRECTION('',(-1.0,0.0,0.0));
#532=ORIENTED_EDGE('',*,*,#948,.F.);
#533=ORIENTED_EDGE('',*,*,#956,.T.);
#534=ORIENTED_EDGE('',*,*,#957,.T.);
#535=ORIENTED_EDGE('',*,*,#958,.T.);
#536=ORIENTED_EDGE('',*,*,#959,.F.);
#537=CARTESIAN_POINT('',(0.0,0.0,3.048));
#538=DIRECTION('',(-0.0,0.0,1.0));
#539=DIRECTION('',(0.0,-1.0,0.0));
#540=ORIENTED_EDGE('',*,*,#960,.T.);
#541=ORIENTED_EDGE('',*,*,#961,.T.);
#542=ORIENTED_EDGE('',*,*,#962,.F.);
#543=ORIENTED_EDGE('',*,*,#954,.F.);
#544=ORIENTED_EDGE('',*,*,#963,.F.);
#545=CARTESIAN_POINT('',(0.0,0.0,6.096));
#546=DIRECTION('',(-0.0,0.0,1.0));
#547=DIRECTION('',(0.0,-1.0,0.0));
#548=ORIENTED_EDGE('',*,*,#964,.T.);
#549=ORIENTED_EDGE('',*,*,#965,.T.);
#550=ORIENTED_EDGE('',*,*,#966,.F.);
#551=ORIENTED_EDGE('',*,*,#958,.F.);
#552=ORIENTED_EDGE('',*,*,#967,.F.);
#553=CARTESIAN_POINT('',(0.0,0.0,3.81));
#554=DIRECTION('',(-0.0,-0.0,-1.0));
#555=DIRECTION('',(-1.0,0.0,0.0));
#556=ORIENTED_EDGE('',*,*,#960,.F.);
#557=ORIENTED_EDGE('',*,*,#968,.T.);
#558=ORIENTED_EDGE('',*,*,#969,.T.);
#559=ORIENTED_EDGE('',*,*,#970,.T.);
#560=ORIENTED_EDGE('',*,*,#971,.F.);
#561=CARTESIAN_POINT('',(0.0,0.0,6.096));
#562=DIRECTION('',(0.0,-0.0,-1.0));
#563=DIRECTION('',(0.0,1.0,0.0));
#564=ORIENTED_EDGE('',*,*,#964,.F.);
#565=ORIENTED_EDGE('',*,*,#972,.T.);
#566=ORIENTED_EDGE('',*,*,#973,.T.);
#567=ORIENTED_EDGE('',*,*,#974,.F.);
#568=CARTESIAN_POINT('',(0.0,0.0,3.81));
#569=DIRECTION('',(-0.0,-0.0,1.0));
#570=DIRECTION('',(1.0,0.0,0.0));
#571=ORIENTED_EDGE('',*,*,#975,.T.);
#572=ORIENTED_EDGE('',*,*,#976,.T.);
#573=ORIENTED_EDGE('',*,*,#969,.F.);
#574=ORIENTED_EDGE('',*,*,#977,.F.);
#575=ORIENTED_EDGE('',*,*,#978,.F.);
#576=CARTESIAN_POINT('',(0.0,0.0,5.334));
#577=DIRECTION('',(-0.0,-0.0,1.0));
#578=DIRECTION('',(1.0,0.0,0.0));
#579=ORIENTED_EDGE('',*,*,#979,.T.);
#580=ORIENTED_EDGE('',*,*,#980,.T.);
#581=ORIENTED_EDGE('',*,*,#973,.F.);
#582=ORIENTED_EDGE('',*,*,#981,.F.);
#583=CARTESIAN_POINT('',(0.0,0.0,4.572));
#584=DIRECTION('',(-0.0,-0.0,-1.0));
#585=DIRECTION('',(-1.0,0.0,0.0));
#586=ORIENTED_EDGE('',*,*,#975,.F.);
#587=ORIENTED_EDGE('',*,*,#982,.T.);
#588=ORIENTED_EDGE('',*,*,#983,.T.);
#589=ORIENTED_EDGE('',*,*,#984,.F.);
#590=CARTESIAN_POINT('',(0.0,0.0,5.334));
#591=DIRECTION('',(-0.0,-0.0,-1.0));
#592=DIRECTION('',(-1.0,0.0,0.0));
#593=ORIENTED_EDGE('',*,*,#979,.F.);
#594=ORIENTED_EDGE('',*,*,#985,.T.);
#595=ORIENTED_EDGE('',*,*,#983,.F.);
#596=ORIENTED_EDGE('',*,*,#986,.F.);
#597=CARTESIAN_POINT('',(0.0,0.0,4.572));
#598=DIRECTION('',(-0.0,-0.0,1.0));
#599=DIRECTION('',(1.0,0.0,0.0));
#600=ORIENTED_EDGE('',*,*,#884,.F.);
#601=ORIENTED_EDGE('',*,*,#987,.T.);
#602=ORIENTED_EDGE('',*,*,#886,.T.);
#603=ORIENTED_EDGE('',*,*,#988,.T.);
#604=CARTESIAN_POINT('',(0.0,0.0,10.668));
#605=DIRECTION('',(-0.0,-0.0,1.0));
#606=DIRECTION('',(1.0,0.0,0.0));
#607=ORIENTED_EDGE('',*,*,#989,.T.);
#608=ORIENTED_EDGE('',*,*,#990,.T.);
#609=ORIENTED_EDGE('',*,*,#991,.T.);
#610=ORIENTED_EDGE('',*,*,#992,.T.);
#611=ORIENTED_EDGE('',*,*,#993,.T.);
#612=ORIENTED_EDGE('',*,*,#994,.T.);
#613=ORIENTED_EDGE('',*,*,#988,.F.);
#614=ORIENTED_EDGE('',*,*,#885,.F.);
#615=CARTESIAN_POINT('',(-3.2649481056,-2.794,10.922));
#616=DIRECTION('',(0.0,0.0,1.0));
#617=DIRECTION('',(1.0,0.0,0.0));
#618=ORIENTED_EDGE('',*,*,#887,.F.);
#619=ORIENTED_EDGE('',*,*,#987,.F.);
#620=ORIENTED_EDGE('',*,*,#889,.T.);
#621=ORIENTED_EDGE('',*,*,#995,.T.);
#622=CARTESIAN_POINT('',(0.0,0.0,10.668));
#623=DIRECTION('',(-0.0,-0.0,-1.0));
#624=DIRECTION('',(-1.0,0.0,0.0));
#625=ORIENTED_EDGE('',*,*,#996,.F.);
#626=ORIENTED_EDGE('',*,*,#990,.F.);
#627=ORIENTED_EDGE('',*,*,#997,.F.);
#628=ORIENTED_EDGE('',*,*,#998,.F.);
#629=CARTESIAN_POINT('',(3.2262332986,0.0,0.0));
#630=DIRECTION('',(-0.866025405866912,0.499999996393051,0.0));
#631=DIRECTION('',(0.0,0.0,1.0));
#632=ORIENTED_EDGE('',*,*,#997,.T.);
#633=ORIENTED_EDGE('',*,*,#989,.F.);
#634=ORIENTED_EDGE('',*,*,#999,.F.);
#635=ORIENTED_EDGE('',*,*,#1000,.F.);
#636=CARTESIAN_POINT('',(1.613116662,-2.794,0.0));
#637=DIRECTION('',(0.0,1.0,0.0));
#638=DIRECTION('',(1.0,0.0,-0.0));
#639=ORIENTED_EDGE('',*,*,#999,.T.);
#640=ORIENTED_EDGE('',*,*,#994,.F.);
#641=ORIENTED_EDGE('',*,*,#1001,.F.);
#642=ORIENTED_EDGE('',*,*,#1002,.F.);
#643=CARTESIAN_POINT('',(-1.613116662,-2.794,0.0));
#644=DIRECTION('',(0.866025405866912,0.499999996393051,0.0));
#645=DIRECTION('',(0.0,0.0,-1.0));
#646=ORIENTED_EDGE('',*,*,#1001,.T.);
#647=ORIENTED_EDGE('',*,*,#993,.F.);
#648=ORIENTED_EDGE('',*,*,#1003,.F.);
#649=ORIENTED_EDGE('',*,*,#1004,.F.);
#650=CARTESIAN_POINT('',(-3.2262332986,0.0,0.0));
#651=DIRECTION('',(0.866025405866912,-0.499999996393051,0.0));
#652=DIRECTION('',(0.0,0.0,-1.0));
#653=ORIENTED_EDGE('',*,*,#1003,.T.);
#654=ORIENTED_EDGE('',*,*,#992,.F.);
#655=ORIENTED_EDGE('',*,*,#1005,.F.);
#656=ORIENTED_EDGE('',*,*,#1006,.F.);
#657=CARTESIAN_POINT('',(-1.613116662,2.794,0.0));
#658=DIRECTION('',(0.0,-1.0,0.0));
#659=DIRECTION('',(0.0,0.0,-1.0));
#660=ORIENTED_EDGE('',*,*,#1005,.T.);
#661=ORIENTED_EDGE('',*,*,#991,.F.);
#662=ORIENTED_EDGE('',*,*,#996,.T.);
#663=ORIENTED_EDGE('',*,*,#1007,.F.);
#664=CARTESIAN_POINT('',(1.613116662,2.794,0.0));
#665=DIRECTION('',(-0.866025405866912,-0.499999996393051,0.0));
#666=DIRECTION('',(-0.499999996393051,0.866025405866912,0.0));
#667=ORIENTED_EDGE('',*,*,#891,.F.);
#668=ORIENTED_EDGE('',*,*,#1008,.T.);
#669=ORIENTED_EDGE('',*,*,#892,.T.);
#670=ORIENTED_EDGE('',*,*,#995,.F.);
#671=CARTESIAN_POINT('',(0.0,0.0,9.906));
#672=DIRECTION('',(-0.0,-0.0,1.0));
#673=DIRECTION('',(1.0,0.0,0.0));
#674=ORIENTED_EDGE('',*,*,#998,.T.);
#675=ORIENTED_EDGE('',*,*,#1000,.T.);
#676=ORIENTED_EDGE('',*,*,#1002,.T.);
#677=ORIENTED_EDGE('',*,*,#1004,.T.);
#678=ORIENTED_EDGE('',*,*,#1006,.T.);
#679=ORIENTED_EDGE('',*,*,#1007,.T.);
#680=ORIENTED_EDGE('',*,*,#896,.F.);
#681=ORIENTED_EDGE('',*,*,#1009,.F.);
#682=CARTESIAN_POINT('',(-3.2649481056,-2.794,0.0));
#683=DIRECTION('',(0.0,0.0,1.0));
#684=DIRECTION('',(1.0,0.0,0.0));
#685=ORIENTED_EDGE('',*,*,#893,.F.);
#686=ORIENTED_EDGE('',*,*,#1008,.F.);
#687=ORIENTED_EDGE('',*,*,#895,.T.);
#688=ORIENTED_EDGE('',*,*,#1010,.T.);
#689=CARTESIAN_POINT('',(0.0,0.0,9.906));
#690=DIRECTION('',(-0.0,-0.0,-1.0));
#691=DIRECTION('',(-1.0,0.0,0.0));
#692=ORIENTED_EDGE('',*,*,#897,.F.);
#693=ORIENTED_EDGE('',*,*,#1009,.T.);
#694=ORIENTED_EDGE('',*,*,#900,.T.);
#695=ORIENTED_EDGE('',*,*,#1011,.T.);
#696=ORIENTED_EDGE('',*,*,#906,.T.);
#697=CARTESIAN_POINT('',(0.0,0.0,0.0));
#698=DIRECTION('',(-0.0,-0.0,1.0));
#699=DIRECTION('',(1.0,0.0,0.0));
#700=ORIENTED_EDGE('',*,*,#902,.F.);
#701=ORIENTED_EDGE('',*,*,#1012,.T.);
#702=ORIENTED_EDGE('',*,*,#903,.T.);
#703=ORIENTED_EDGE('',*,*,#1010,.F.);
#704=CARTESIAN_POINT('',(0.0,0.0,9.144));
#705=DIRECTION('',(-0.0,-0.0,1.0));
#706=DIRECTION('',(1.0,0.0,0.0));
#707=ORIENTED_EDGE('',*,*,#905,.F.);
#708=ORIENTED_EDGE('',*,*,#1013,.T.);
#709=ORIENTED_EDGE('',*,*,#907,.T.);
#710=ORIENTED_EDGE('',*,*,#1011,.F.);
#711=ORIENTED_EDGE('',*,*,#899,.F.);
#712=CARTESIAN_POINT('',(0.0,0.0,0.762));
#713=DIRECTION('',(0.0,-0.0,-1.0));
#714=DIRECTION('',(0.0,1.0,0.0));
#715=ORIENTED_EDGE('',*,*,#908,.F.);
#716=ORIENTED_EDGE('',*,*,#1012,.F.);
#717=ORIENTED_EDGE('',*,*,#911,.T.);
#718=ORIENTED_EDGE('',*,*,#917,.T.);
#719=ORIENTED_EDGE('',*,*,#1014,.T.);
#720=CARTESIAN_POINT('',(0.0,0.0,9.144));
#721=DIRECTION('',(-0.0,-0.0,-1.0));
#722=DIRECTION('',(-1.0,0.0,0.0));
#723=ORIENTED_EDGE('',*,*,#912,.F.);
#724=ORIENTED_EDGE('',*,*,#1013,.F.);
#725=ORIENTED_EDGE('',*,*,#914,.T.);
#726=ORIENTED_EDGE('',*,*,#1015,.T.);
#727=CARTESIAN_POINT('',(0.0,0.0,0.762));
#728=DIRECTION('',(-0.0,0.0,1.0));
#729=DIRECTION('',(0.0,-1.0,0.0));
#730=ORIENTED_EDGE('',*,*,#916,.F.);
#731=ORIENTED_EDGE('',*,*,#1016,.T.);
#732=ORIENTED_EDGE('',*,*,#918,.T.);
#733=ORIENTED_EDGE('',*,*,#909,.F.);
#734=ORIENTED_EDGE('',*,*,#1014,.F.);
#735=CARTESIAN_POINT('',(0.0,0.0,8.382));
#736=DIRECTION('',(-0.0,0.0,1.0));
#737=DIRECTION('',(0.0,-1.0,0.0));
#738=ORIENTED_EDGE('',*,*,#920,.F.);
#739=ORIENTED_EDGE('',*,*,#1017,.T.);
#740=ORIENTED_EDGE('',*,*,#921,.T.);
#741=ORIENTED_EDGE('',*,*,#1015,.F.);
#742=CARTESIAN_POINT('',(0.0,0.0,1.524));
#743=DIRECTION('',(0.0,-0.0,-1.0));
#744=DIRECTION('',(0.0,1.0,0.0));
#745=ORIENTED_EDGE('',*,*,#922,.F.);
#746=ORIENTED_EDGE('',*,*,#1016,.F.);
#747=ORIENTED_EDGE('',*,*,#925,.T.);
#748=ORIENTED_EDGE('',*,*,#1018,.T.);
#749=ORIENTED_EDGE('',*,*,#932,.T.);
#750=CARTESIAN_POINT('',(0.0,0.0,8.382));
#751=DIRECTION('',(0.0,-0.0,-1.0));
#752=DIRECTION('',(0.0,1.0,0.0));
#753=ORIENTED_EDGE('',*,*,#926,.F.);
#754=ORIENTED_EDGE('',*,*,#1017,.F.);
#755=ORIENTED_EDGE('',*,*,#929,.T.);
#756=ORIENTED_EDGE('',*,*,#936,.T.);
#757=ORIENTED_EDGE('',*,*,#1019,.T.);
#758=CARTESIAN_POINT('',(0.0,0.0,1.524));
#759=DIRECTION('',(-0.0,0.0,1.0));
#760=DIRECTION('',(0.0,-1.0,0.0));
#761=ORIENTED_EDGE('',*,*,#931,.F.);
#762=ORIENTED_EDGE('',*,*,#1020,.T.);
#763=ORIENTED_EDGE('',*,*,#933,.T.);
#764=ORIENTED_EDGE('',*,*,#1018,.F.);
#765=ORIENTED_EDGE('',*,*,#924,.F.);
#766=CARTESIAN_POINT('',(0.0,0.0,7.62));
#767=DIRECTION('',(-0.0,-0.0,1.0));
#768=DIRECTION('',(1.0,0.0,0.0));
#769=ORIENTED_EDGE('',*,*,#935,.F.);
#770=ORIENTED_EDGE('',*,*,#1021,.T.);
#771=ORIENTED_EDGE('',*,*,#937,.T.);
#772=ORIENTED_EDGE('',*,*,#927,.F.);
#773=ORIENTED_EDGE('',*,*,#1019,.F.);
#774=CARTESIAN_POINT('',(0.0,0.0,2.286));
#775=DIRECTION('',(-0.0,-0.0,-1.0));
#776=DIRECTION('',(-1.0,0.0,0.0));
#777=ORIENTED_EDGE('',*,*,#938,.F.);
#778=ORIENTED_EDGE('',*,*,#1020,.F.);
#779=ORIENTED_EDGE('',*,*,#940,.T.);
#780=ORIENTED_EDGE('',*,*,#1022,.T.);
#781=CARTESIAN_POINT('',(0.0,0.0,7.62));
#782=DIRECTION('',(-0.0,-0.0,-1.0));
#783=DIRECTION('',(-1.0,0.0,0.0));
#784=ORIENTED_EDGE('',*,*,#941,.F.);
#785=ORIENTED_EDGE('',*,*,#1021,.F.);
#786=ORIENTED_EDGE('',*,*,#944,.T.);
#787=ORIENTED_EDGE('',*,*,#1023,.T.);
#788=ORIENTED_EDGE('',*,*,#950,.T.);
#789=CARTESIAN_POINT('',(0.0,0.0,2.286));
#790=DIRECTION('',(-0.0,-0.0,1.0));
#791=DIRECTION('',(1.0,0.0,0.0));
#792=ORIENTED_EDGE('',*,*,#946,.F.);
#793=ORIENTED_EDGE('',*,*,#1024,.T.);
#794=ORIENTED_EDGE('',*,*,#947,.T.);
#795=ORIENTED_EDGE('',*,*,#1022,.F.);
#796=CARTESIAN_POINT('',(0.0,0.0,6.858));
#797=DIRECTION('',(-0.0,-0.0,1.0));
#798=DIRECTION('',(1.0,0.0,0.0));
#799=ORIENTED_EDGE('',*,*,#949,.F.);
#800=ORIENTED_EDGE('',*,*,#1025,.T.);
#801=ORIENTED_EDGE('',*,*,#951,.T.);
#802=ORIENTED_EDGE('',*,*,#1023,.F.);
#803=ORIENTED_EDGE('',*,*,#943,.F.);
#804=CARTESIAN_POINT('',(0.0,0.0,3.048));
#805=DIRECTION('',(0.0,-0.0,-1.0));
#806=DIRECTION('',(0.0,1.0,0.0));
#807=ORIENTED_EDGE('',*,*,#952,.F.);
#808=ORIENTED_EDGE('',*,*,#1024,.F.);
#809=ORIENTED_EDGE('',*,*,#955,.T.);
#810=ORIENTED_EDGE('',*,*,#962,.T.);
#811=ORIENTED_EDGE('',*,*,#1026,.T.);
#812=CARTESIAN_POINT('',(0.0,0.0,6.858));
#813=DIRECTION('',(-0.0,-0.0,-1.0));
#814=DIRECTION('',(-1.0,0.0,0.0));
#815=ORIENTED_EDGE('',*,*,#956,.F.);
#816=ORIENTED_EDGE('',*,*,#1025,.F.);
#817=ORIENTED_EDGE('',*,*,#959,.T.);
#818=ORIENTED_EDGE('',*,*,#966,.T.);
#819=ORIENTED_EDGE('',*,*,#1027,.T.);
#820=CARTESIAN_POINT('',(0.0,0.0,3.048));
#821=DIRECTION('',(-0.0,0.0,1.0));
#822=DIRECTION('',(0.0,-1.0,0.0));
#823=ORIENTED_EDGE('',*,*,#961,.F.);
#824=ORIENTED_EDGE('',*,*,#1028,.T.);
#825=ORIENTED_EDGE('',*,*,#963,.T.);
#826=ORIENTED_EDGE('',*,*,#953,.F.);
#827=ORIENTED_EDGE('',*,*,#1026,.F.);
#828=CARTESIAN_POINT('',(0.0,0.0,6.096));
#829=DIRECTION('',(-0.0,0.0,1.0));
#830=DIRECTION('',(0.0,-1.0,0.0));
#831=ORIENTED_EDGE('',*,*,#965,.F.);
#832=ORIENTED_EDGE('',*,*,#1029,.T.);
#833=ORIENTED_EDGE('',*,*,#967,.T.);
#834=ORIENTED_EDGE('',*,*,#957,.F.);
#835=ORIENTED_EDGE('',*,*,#1027,.F.);
#836=CARTESIAN_POINT('',(0.0,0.0,3.81));
#837=DIRECTION('',(-0.0,-0.0,-1.0));
#838=DIRECTION('',(-1.0,0.0,0.0));
#839=ORIENTED_EDGE('',*,*,#968,.F.);
#840=ORIENTED_EDGE('',*,*,#1028,.F.);
#841=ORIENTED_EDGE('',*,*,#971,.T.);
#842=ORIENTED_EDGE('',*,*,#1030,.T.);
#843=ORIENTED_EDGE('',*,*,#977,.T.);
#844=CARTESIAN_POINT('',(0.0,0.0,6.096));
#845=DIRECTION('',(0.0,-0.0,-1.0));
#846=DIRECTION('',(0.0,1.0,0.0));
#847=ORIENTED_EDGE('',*,*,#972,.F.);
#848=ORIENTED_EDGE('',*,*,#1029,.F.);
#849=ORIENTED_EDGE('',*,*,#974,.T.);
#850=ORIENTED_EDGE('',*,*,#1031,.T.);
#851=CARTESIAN_POINT('',(0.0,0.0,3.81));
#852=DIRECTION('',(-0.0,-0.0,1.0));
#853=DIRECTION('',(1.0,0.0,0.0));
#854=ORIENTED_EDGE('',*,*,#976,.F.);
#855=ORIENTED_EDGE('',*,*,#1032,.T.);
#856=ORIENTED_EDGE('',*,*,#978,.T.);
#857=ORIENTED_EDGE('',*,*,#1030,.F.);
#858=ORIENTED_EDGE('',*,*,#970,.F.);
#859=CARTESIAN_POINT('',(0.0,0.0,5.334));
#860=DIRECTION('',(-0.0,-0.0,1.0));
#861=DIRECTION('',(1.0,0.0,0.0));
#862=ORIENTED_EDGE('',*,*,#980,.F.);
#863=ORIENTED_EDGE('',*,*,#1033,.T.);
#864=ORIENTED_EDGE('',*,*,#981,.T.);
#865=ORIENTED_EDGE('',*,*,#1031,.F.);
#866=CARTESIAN_POINT('',(0.0,0.0,4.572));
#867=DIRECTION('',(-0.0,-0.0,-1.0));
#868=DIRECTION('',(-1.0,0.0,0.0));
#869=ORIENTED_EDGE('',*,*,#982,.F.);
#870=ORIENTED_EDGE('',*,*,#1032,.F.);
#871=ORIENTED_EDGE('',*,*,#984,.T.);
#872=ORIENTED_EDGE('',*,*,#1034,.T.);
#873=CARTESIAN_POINT('',(0.0,0.0,5.334));
#874=DIRECTION('',(-0.0,-0.0,-1.0));
#875=DIRECTION('',(-1.0,0.0,0.0));
#876=ORIENTED_EDGE('',*,*,#985,.F.);
#877=ORIENTED_EDGE('',*,*,#1033,.F.);
#878=ORIENTED_EDGE('',*,*,#986,.T.);
#879=ORIENTED_EDGE('',*,*,#1034,.F.);
#880=CARTESIAN_POINT('',(0.0,0.0,4.572));
#881=DIRECTION('',(-0.0,-0.0,1.0));
#882=DIRECTION('',(1.0,0.0,0.0));
#883=EDGE_CURVE('NONE',#1035,#1036,#1037,.T.);
#884=EDGE_CURVE('NONE',#1036,#1038,#1039,.T.);
#885=EDGE_CURVE('NONE',#1038,#1040,#1041,.T.);
#886=EDGE_CURVE('NONE',#1035,#1040,#1042,.T.);
#887=EDGE_CURVE('NONE',#1035,#1043,#1044,.T.);
#888=EDGE_CURVE('NONE',#1043,#1045,#1046,.T.);
#889=EDGE_CURVE('NONE',#1036,#1045,#1047,.T.);
#890=EDGE_CURVE('NONE',#1048,#1049,#1050,.T.);
#891=EDGE_CURVE('NONE',#1049,#1045,#1051,.T.);
#892=EDGE_CURVE('NONE',#1048,#1043,#1052,.T.);
#893=EDGE_CURVE('NONE',#1048,#1053,#1054,.T.);
#894=EDGE_CURVE('NONE',#1053,#1055,#1056,.T.);
#895=EDGE_CURVE('NONE',#1049,#1055,#1057,.T.);
#896=EDGE_CURVE('NONE',#1058,#1059,#1060,.T.);
#897=EDGE_CURVE('NONE',#1059,#1061,#1062,.T.);
#898=EDGE_CURVE('NONE',#1061,#1063,#1064,.T.);
#899=EDGE_CURVE('NONE',#1063,#1065,#1066,.T.);
#900=EDGE_CURVE('NONE',#1058,#1065,#1067,.T.);
#901=EDGE_CURVE('NONE',#1068,#1069,#1070,.T.);
#902=EDGE_CURVE('NONE',#1069,#1055,#1071,.T.);
#903=EDGE_CURVE('NONE',#1068,#1053,#1072,.T.);
#904=EDGE_CURVE('NONE',#1073,#1074,#1075,.T.);
#905=EDGE_CURVE('NONE',#1074,#1063,#1076,.T.);
#906=EDGE_CURVE('NONE',#1077,#1061,#1078,.T.);
#907=EDGE_CURVE('NONE',#1073,#1077,#1079,.T.);
#908=EDGE_CURVE('NONE',#1068,#1080,#1081,.T.);
#909=EDGE_CURVE('NONE',#1080,#1082,#1083,.T.);
#910=EDGE_CURVE('NONE',#1082,#1084,#1085,.T.);
#911=EDGE_CURVE('NONE',#1069,#1084,#1086,.T.);
#912=EDGE_CURVE('NONE',#1073,#1087,#1088,.T.);
#913=EDGE_CURVE('NONE',#1087,#1089,#1090,.T.);
#914=EDGE_CURVE('NONE',#1074,#1089,#1091,.T.);
#915=EDGE_CURVE('NONE',#1092,#1093,#1094,.T.);
#916=EDGE_CURVE('NONE',#1093,#1095,#1096,.T.);
#917=EDGE_CURVE('NONE',#1084,#1095,#1097,.T.);
#918=EDGE_CURVE('NONE',#1092,#1082,#1098,.T.);
#919=EDGE_CURVE('NONE',#1099,#1100,#1101,.T.);
#920=EDGE_CURVE('NONE',#1100,#1089,#1102,.T.);
#921=EDGE_CURVE('NONE',#1099,#1087,#1103,.T.);
#922=EDGE_CURVE('NONE',#1092,#1104,#1105,.T.);
#923=EDGE_CURVE('NONE',#1104,#1106,#1107,.T.);
#924=EDGE_CURVE('NONE',#1106,#1108,#1109,.T.);
#925=EDGE_CURVE('NONE',#1093,#1108,#1110,.T.);
#926=EDGE_CURVE('NONE',#1099,#1111,#1112,.T.);
#927=EDGE_CURVE('NONE',#1111,#1113,#1114,.T.);
#928=EDGE_CURVE('NONE',#1113,#1115,#1116,.T.);
#929=EDGE_CURVE('NONE',#1100,#1115,#1117,.T.);
#930=EDGE_CURVE('NONE',#1118,#1119,#1120,.T.);
#931=EDGE_CURVE('NONE',#1119,#1106,#1121,.T.);
#932=EDGE_CURVE('NONE',#1122,#1104,#1123,.T.);
#933=EDGE_CURVE('NONE',#1118,#1122,#1124,.T.);
#934=EDGE_CURVE('NONE',#1125,#1126,#1127,.T.);
#935=EDGE_CURVE('NONE',#1126,#1128,#1129,.T.);
#936=EDGE_CURVE('NONE',#1115,#1128,#1130,.T.);
#937=EDGE_CURVE('NONE',#1125,#1113,#1131,.T.);
#938=EDGE_CURVE('NONE',#1118,#1132,#1133,.T.);
#939=EDGE_CURVE('NONE',#1132,#1134,#1135,.T.);
#940=EDGE_CURVE('NONE',#1119,#1134,#1136,.T.);
#941=EDGE_CURVE('NONE',#1125,#1137,#1138,.T.);
#942=EDGE_CURVE('NONE',#1137,#1139,#1140,.T.);
#943=EDGE_CURVE('NONE',#1139,#1141,#1142,.T.);
#944=EDGE_CURVE('NONE',#1126,#1141,#1143,.T.);
#945=EDGE_CURVE('NONE',#1144,#1145,#1146,.T.);
#946=EDGE_CURVE('NONE',#1145,#1134,#1147,.T.);
#947=EDGE_CURVE('NONE',#1144,#1132,#1148,.T.);
#948=EDGE_CURVE('NONE',#1149,#1150,#1151,.T.);
#949=EDGE_CURVE('NONE',#1150,#1139,#1152,.T.);
#950=EDGE_CURVE('NONE',#1153,#1137,#1154,.T.);
#951=EDGE_CURVE('NONE',#1149,#1153,#1155,.T.);
#952=EDGE_CURVE('NONE',#1144,#1156,#1157,.T.);
#953=EDGE_CURVE('NONE',#1156,#1158,#1159,.T.);
#954=EDGE_CURVE('NONE',#1158,#1160,#1161,.T.);
#955=EDGE_CURVE('NONE',#1145,#1160,#1162,.T.);
#956=EDGE_CURVE('NONE',#1149,#1163,#1164,.T.);
#957=EDGE_CURVE('NONE',#1163,#1165,#1166,.T.);
#958=EDGE_CURVE('NONE',#1165,#1167,#1168,.T.);
#959=EDGE_CURVE('NONE',#1150,#1167,#1169,.T.);
#960=EDGE_CURVE('NONE',#1170,#1171,#1172,.T.);
#961=EDGE_CURVE('NONE',#1171,#1173,#1174,.T.);
#962=EDGE_CURVE('NONE',#1160,#1173,#1175,.T.);
#963=EDGE_CURVE('NONE',#1170,#1158,#1176,.T.);
#964=EDGE_CURVE('NONE',#1177,#1178,#1179,.T.);
#965=EDGE_CURVE('NONE',#1178,#1180,#1181,.T.);
#966=EDGE_CURVE('NONE',#1167,#1180,#1182,.T.);
#967=EDGE_CURVE('NONE',#1177,#1165,#1183,.T.);
#968=EDGE_CURVE('NONE',#1170,#1184,#1185,.T.);
#969=EDGE_CURVE('NONE',#1184,#1186,#1187,.T.);
#970=EDGE_CURVE('NONE',#1186,#1188,#1189,.T.);
#971=EDGE_CURVE('NONE',#1171,#1188,#1190,.T.);
#972=EDGE_CURVE('NONE',#1177,#1191,#1192,.T.);
#973=EDGE_CURVE('NONE',#1191,#1193,#1194,.T.);
#974=EDGE_CURVE('NONE',#1178,#1193,#1195,.T.);
#975=EDGE_CURVE('NONE',#1196,#1197,#1198,.T.);
#976=EDGE_CURVE('NONE',#1197,#1186,#1199,.T.);
#977=EDGE_CURVE('NONE',#1200,#1184,#1201,.T.);
#978=EDGE_CURVE('NONE',#1196,#1200,#1202,.T.);
#979=EDGE_CURVE('NONE',#1203,#1204,#1205,.T.);
#980=EDGE_CURVE('NONE',#1204,#1193,#1206,.T.);
#981=EDGE_CURVE('NONE',#1203,#1191,#1207,.T.);
#982=EDGE_CURVE('NONE',#1196,#1208,#1209,.T.);
#983=EDGE_CURVE('NONE',#1208,#1210,#1211,.T.);
#984=EDGE_CURVE('NONE',#1197,#1210,#1212,.T.);
#985=EDGE_CURVE('NONE',#1203,#1210,#1213,.T.);
#986=EDGE_CURVE('NONE',#1204,#1208,#1214,.T.);
#987=EDGE_CURVE('NONE',#1036,#1035,#1215,.T.);
#988=EDGE_CURVE('NONE',#1040,#1038,#1216,.T.);
#989=EDGE_CURVE('NONE',#1217,#1218,#1219,.T.);
#990=EDGE_CURVE('NONE',#1218,#1220,#1221,.T.);
#991=EDGE_CURVE('NONE',#1220,#1222,#1223,.T.);
#992=EDGE_CURVE('NONE',#1222,#1224,#1225,.T.);
#993=EDGE_CURVE('NONE',#1224,#1226,#1227,.T.);
#994=EDGE_CURVE('NONE',#1226,#1217,#1228,.T.);
#995=EDGE_CURVE('NONE',#1045,#1043,#1229,.T.);
#996=EDGE_CURVE('NONE',#1220,#1230,#1231,.T.);
#997=EDGE_CURVE('NONE',#1232,#1218,#1233,.T.);
#998=EDGE_CURVE('NONE',#1230,#1232,#1234,.T.);
#999=EDGE_CURVE('NONE',#1235,#1217,#1236,.T.);
#1000=EDGE_CURVE('NONE',#1232,#1235,#1237,.T.);
#1001=EDGE_CURVE('NONE',#1238,#1226,#1239,.T.);
#1002=EDGE_CURVE('NONE',#1235,#1238,#1240,.T.);
#1003=EDGE_CURVE('NONE',#1241,#1224,#1242,.T.);
#1004=EDGE_CURVE('NONE',#1238,#1241,#1243,.T.);
#1005=EDGE_CURVE('NONE',#1244,#1222,#1245,.T.);
#1006=EDGE_CURVE('NONE',#1241,#1244,#1246,.T.);
#1007=EDGE_CURVE('NONE',#1244,#1230,#1247,.T.);
#1008=EDGE_CURVE('NONE',#1049,#1048,#1248,.T.);
#1009=EDGE_CURVE('NONE',#1059,#1058,#1249,.T.);
#1010=EDGE_CURVE('NONE',#1055,#1053,#1250,.T.);
#1011=EDGE_CURVE('NONE',#1065,#1077,#1251,.T.);
#1012=EDGE_CURVE('NONE',#1069,#1068,#1252,.T.);
#1013=EDGE_CURVE('NONE',#1074,#1073,#1253,.T.);
#1014=EDGE_CURVE('NONE',#1095,#1080,#1254,.T.);
#1015=EDGE_CURVE('NONE',#1089,#1087,#1255,.T.);
#1016=EDGE_CURVE('NONE',#1093,#1092,#1256,.T.);
#1017=EDGE_CURVE('NONE',#1100,#1099,#1257,.T.);
#1018=EDGE_CURVE('NONE',#1108,#1122,#1258,.T.);
#1019=EDGE_CURVE('NONE',#1128,#1111,#1259,.T.);
#1020=EDGE_CURVE('NONE',#1119,#1118,#1260,.T.);
#1021=EDGE_CURVE('NONE',#1126,#1125,#1261,.T.);
#1022=EDGE_CURVE('NONE',#1134,#1132,#1262,.T.);
#1023=EDGE_CURVE('NONE',#1141,#1153,#1263,.T.);
#1024=EDGE_CURVE('NONE',#1145,#1144,#1264,.T.);
#1025=EDGE_CURVE('NONE',#1150,#1149,#1265,.T.);
#1026=EDGE_CURVE('NONE',#1173,#1156,#1266,.T.);
#1027=EDGE_CURVE('NONE',#1180,#1163,#1267,.T.);
#1028=EDGE_CURVE('NONE',#1171,#1170,#1268,.T.);
#1029=EDGE_CURVE('NONE',#1178,#1177,#1269,.T.);
#1030=EDGE_CURVE('NONE',#1188,#1200,#1270,.T.);
#1031=EDGE_CURVE('NONE',#1193,#1191,#1271,.T.);
#1032=EDGE_CURVE('NONE',#1197,#1196,#1272,.T.);
#1033=EDGE_CURVE('NONE',#1204,#1203,#1273,.T.);
#1034=EDGE_CURVE('NONE',#1210,#1208,#1274,.T.);
#1035=VERTEX_POINT('NONE',#1275);
#1036=VERTEX_POINT('NONE',#1276);
#1037=CIRCLE('',#1277,1.500000048);
#1038=VERTEX_POINT('NONE',#1278);
#1039=LINE('',#1279,#1280);
#1040=VERTEX_POINT('NONE',#1281);
#1041=CIRCLE('',#1282,1.93994095120016);
#1042=LINE('',#1283,#1284);
#1043=VERTEX_POINT('NONE',#1285);
#1044=LINE('',#1286,#1287);
#1045=VERTEX_POINT('NONE',#1288);
#1046=CIRCLE('',#1289,2.1599114028);
#1047=LINE('',#1290,#1291);
#1048=VERTEX_POINT('NONE',#1292);
#1049=VERTEX_POINT('NONE',#1293);
#1050=CIRCLE('',#1294,1.500000048);
#1051=LINE('',#1295,#1296);
#1052=LINE('',#1297,#1298);
#1053=VERTEX_POINT('NONE',#1299);
#1054=LINE('',#1300,#1301);
#1055=VERTEX_POINT('NONE',#1302);
#1056=CIRCLE('',#1303,2.1599114028);
#1057=LINE('',#1304,#1305);
#1058=VERTEX_POINT('NONE',#1306);
#1059=VERTEX_POINT('NONE',#1307);
#1060=CIRCLE('',#1308,1.500000048);
#1061=VERTEX_POINT('NONE',#1309);
#1062=LINE('',#1310,#1311);
#1063=VERTEX_POINT('NONE',#1312);
#1064=CIRCLE('',#1313,2.1599114028);
#1065=VERTEX_POINT('NONE',#1314);
#1066=CIRCLE('',#1315,2.1599114028);
#1067=LINE('',#1316,#1317);
#1068=VERTEX_POINT('NONE',#1318);
#1069=VERTEX_POINT('NONE',#1319);
#1070=CIRCLE('',#1320,1.500000048);
#1071=LINE('',#1321,#1322);
#1072=LINE('',#1323,#1324);
#1073=VERTEX_POINT('NONE',#1325);
#1074=VERTEX_POINT('NONE',#1326);
#1075=CIRCLE('',#1327,1.500000048);
#1076=LINE('',#1328,#1329);
#1077=VERTEX_POINT('NONE',#1330);
#1078=CIRCLE('',#1331,2.1599114028);
#1079=LINE('',#1332,#1333);
#1080=VERTEX_POINT('NONE',#1334);
#1081=LINE('',#1335,#1336);
#1082=VERTEX_POINT('NONE',#1337);
#1083=CIRCLE('',#1338,2.1599114028);
#1084=VERTEX_POINT('NONE',#1339);
#1085=CIRCLE('',#1340,2.1599114028);
#1086=LINE('',#1341,#1342);
#1087=VERTEX_POINT('NONE',#1343);
#1088=LINE('',#1344,#1345);
#1089=VERTEX_POINT('NONE',#1346);
#1090=CIRCLE('',#1347,2.1599114028);
#1091=LINE('',#1348,#1349);
#1092=VERTEX_POINT('NONE',#1350);
#1093=VERTEX_POINT('NONE',#1351);
#1094=CIRCLE('',#1352,1.500000048);
#1095=VERTEX_POINT('NONE',#1353);
#1096=LINE('',#1354,#1355);
#1097=CIRCLE('',#1356,2.1599114028);
#1098=LINE('',#1357,#1358);
#1099=VERTEX_POINT('NONE',#1359);
#1100=VERTEX_POINT('NONE',#1360);
#1101=CIRCLE('',#1361,1.500000048);
#1102=LINE('',#1362,#1363);
#1103=LINE('',#1364,#1365);
#1104=VERTEX_POINT('NONE',#1366);
#1105=LINE('',#1367,#1368);
#1106=VERTEX_POINT('NONE',#1369);
#1107=CIRCLE('',#1370,2.1599114028);
#1108=VERTEX_POINT('NONE',#1371);
#1109=CIRCLE('',#1372,2.1599114028);
#1110=LINE('',#1373,#1374);
#1111=VERTEX_POINT('NONE',#1375);
#1112=LINE('',#1376,#1377);
#1113=VERTEX_POINT('NONE',#1378);
#1114=CIRCLE('',#1379,2.1599114028);
#1115=VERTEX_POINT('NONE',#1380);
#1116=CIRCLE('',#1381,2.1599114028);
#1117=LINE('',#1382,#1383);
#1118=VERTEX_POINT('NONE',#1384);
#1119=VERTEX_POINT('NONE',#1385);
#1120=CIRCLE('',#1386,1.500000048);
#1121=LINE('',#1387,#1388);
#1122=VERTEX_POINT('NONE',#1389);
#1123=CIRCLE('',#1390,2.1599114028);
#1124=LINE('',#1391,#1392);
#1125=VERTEX_POINT('NONE',#1393);
#1126=VERTEX_POINT('NONE',#1394);
#1127=CIRCLE('',#1395,1.500000048);
#1128=VERTEX_POINT('NONE',#1396);
#1129=LINE('',#1397,#1398);
#1130=CIRCLE('',#1399,2.1599114028);
#1131=LINE('',#1400,#1401);
#1132=VERTEX_POINT('NONE',#1402);
#1133=LINE('',#1403,#1404);
#1134=VERTEX_POINT('NONE',#1405);
#1135=CIRCLE('',#1406,2.1599114028);
#1136=LINE('',#1407,#1408);
#1137=VERTEX_POINT('NONE',#1409);
#1138=LINE('',#1410,#1411);
#1139=VERTEX_POINT('NONE',#1412);
#1140=CIRCLE('',#1413,2.1599114028);
#1141=VERTEX_POINT('NONE',#1414);
#1142=CIRCLE('',#1415,2.1599114028);
#1143=LINE('',#1416,#1417);
#1144=VERTEX_POINT('NONE',#1418);
#1145=VERTEX_POINT('NONE',#1419);
#1146=CIRCLE('',#1420,1.500000048);
#1147=LINE('',#1421,#1422);
#1148=LINE('',#1423,#1424);
#1149=VERTEX_POINT('NONE',#1425);
#1150=VERTEX_POINT('NONE',#1426);
#1151=CIRCLE('',#1427,1.500000048);
#1152=LINE('',#1428,#1429);
#1153=VERTEX_POINT('NONE',#1430);
#1154=CIRCLE('',#1431,2.1599114028);
#1155=LINE('',#1432,#1433);
#1156=VERTEX_POINT('NONE',#1434);
#1157=LINE('',#1435,#1436);
#1158=VERTEX_POINT('NONE',#1437);
#1159=CIRCLE('',#1438,2.1599114028);
#1160=VERTEX_POINT('NONE',#1439);
#1161=CIRCLE('',#1440,2.1599114028);
#1162=LINE('',#1441,#1442);
#1163=VERTEX_POINT('NONE',#1443);
#1164=LINE('',#1444,#1445);
#1165=VERTEX_POINT('NONE',#1446);
#1166=CIRCLE('',#1447,2.1599114028);
#1167=VERTEX_POINT('NONE',#1448);
#1168=CIRCLE('',#1449,2.1599114028);
#1169=LINE('',#1450,#1451);
#1170=VERTEX_POINT('NONE',#1452);
#1171=VERTEX_POINT('NONE',#1453);
#1172=CIRCLE('',#1454,1.500000048);
#1173=VERTEX_POINT('NONE',#1455);
#1174=LINE('',#1456,#1457);
#1175=CIRCLE('',#1458,2.1599114028);
#1176=LINE('',#1459,#1460);
#1177=VERTEX_POINT('NONE',#1461);
#1178=VERTEX_POINT('NONE',#1462);
#1179=CIRCLE('',#1463,1.500000048);
#1180=VERTEX_POINT('NONE',#1464);
#1181=LINE('',#1465,#1466);
#1182=CIRCLE('',#1467,2.1599114028);
#1183=LINE('',#1468,#1469);
#1184=VERTEX_POINT('NONE',#1470);
#1185=LINE('',#1471,#1472);
#1186=VERTEX_POINT('NONE',#1473);
#1187=CIRCLE('',#1474,2.1599114028);
#1188=VERTEX_POINT('NONE',#1475);
#1189=CIRCLE('',#1476,2.1599114028);
#1190=LINE('',#1477,#1478);
#1191=VERTEX_POINT('NONE',#1479);
#1192=LINE('',#1480,#1481);
#1193=VERTEX_POINT('NONE',#1482);
#1194=CIRCLE('',#1483,2.1599114028);
#1195=LINE('',#1484,#1485);
#1196=VERTEX_POINT('NONE',#1486);
#1197=VERTEX_POINT('NONE',#1487);
#1198=CIRCLE('',#1488,1.500000048);
#1199=LINE('',#1489,#1490);
#1200=VERTEX_POINT('NONE',#1491);
#1201=CIRCLE('',#1492,2.1599114028);
#1202=LINE('',#1493,#1494);
#1203=VERTEX_POINT('NONE',#1495);
#1204=VERTEX_POINT('NONE',#1496);
#1205=CIRCLE('',#1497,1.500000048);
#1206=LINE('',#1498,#1499);
#1207=LINE('',#1500,#1501);
#1208=VERTEX_POINT('NONE',#1502);
#1209=LINE('',#1503,#1504);
#1210=VERTEX_POINT('NONE',#1505);
#1211=CIRCLE('',#1506,2.1599114028);
#1212=LINE('',#1507,#1508);
#1213=LINE('',#1509,#1510);
#1214=LINE('',#1511,#1512);
#1215=CIRCLE('',#1513,1.500000048);
#1216=CIRCLE('',#1514,1.93994095120016);
#1217=VERTEX_POINT('NONE',#1515);
#1218=VERTEX_POINT('NONE',#1516);
#1219=LINE('',#1517,#1518);
#1220=VERTEX_POINT('NONE',#1519);
#1221=LINE('',#1520,#1521);
#1222=VERTEX_POINT('NONE',#1522);
#1223=LINE('',#1523,#1524);
#1224=VERTEX_POINT('NONE',#1525);
#1225=LINE('',#1526,#1527);
#1226=VERTEX_POINT('NONE',#1528);
#1227=LINE('',#1529,#1530);
#1228=LINE('',#1531,#1532);
#1229=CIRCLE('',#1533,2.1599114028);
#1230=VERTEX_POINT('NONE',#1534);
#1231=LINE('',#1535,#1536);
#1232=VERTEX_POINT('NONE',#1537);
#1233=LINE('',#1538,#1539);
#1234=LINE('',#1540,#1541);
#1235=VERTEX_POINT('NONE',#1542);
#1236=LINE('',#1543,#1544);
#1237=LINE('',#1545,#1546);
#1238=VERTEX_POINT('NONE',#1547);
#1239=LINE('',#1548,#1549);
#1240=LINE('',#1550,#1551);
#1241=VERTEX_POINT('NONE',#1552);
#1242=LINE('',#1553,#1554);
#1243=LINE('',#1555,#1556);
#1244=VERTEX_POINT('NONE',#1557);
#1245=LINE('',#1558,#1559);
#1246=LINE('',#1560,#1561);
#1247=LINE('',#1562,#1563);
#1248=CIRCLE('',#1564,1.500000048);
#1249=CIRCLE('',#1565,1.500000048);
#1250=CIRCLE('',#1566,2.1599114028);
#1251=CIRCLE('',#1567,2.1599114028);
#1252=CIRCLE('',#1568,1.500000048);
#1253=CIRCLE('',#1569,1.500000048);
#1254=CIRCLE('',#1570,2.1599114028);
#1255=CIRCLE('',#1571,2.1599114028);
#1256=CIRCLE('',#1572,1.500000048);
#1257=CIRCLE('',#1573,1.500000048);
#1258=CIRCLE('',#1574,2.1599114028);
#1259=CIRCLE('',#1575,2.1599114028);
#1260=CIRCLE('',#1576,1.500000048);
#1261=CIRCLE('',#1577,1.500000048);
#1262=CIRCLE('',#1578,2.1599114028);
#1263=CIRCLE('',#1579,2.1599114028);
#1264=CIRCLE('',#1580,1.500000048);
#1265=CIRCLE('',#1581,1.500000048);
#1266=CIRCLE('',#1582,2.1599114028);
#1267=CIRCLE('',#1583,2.1599114028);
#1268=CIRCLE('',#1584,1.500000048);
#1269=CIRCLE('',#1585,1.500000048);
#1270=CIRCLE('',#1586,2.1599114028);
#1271=CIRCLE('',#1587,2.1599114028);
#1272=CIRCLE('',#1588,1.500000048);
#1273=CIRCLE('',#1589,1.500000048);
#1274=CIRCLE('',#1590,2.1599114028);
#1275=CARTESIAN_POINT('',(1.500000048,2.24104942169253E-16,10.668));
#1276=CARTESIAN_POINT('',(-1.500000048,0.0,10.668));
#1277=AXIS2_PLACEMENT_3D('',#1591,#1592,#1593);
#1278=CARTESIAN_POINT('',(-1.93994095120016,2.37574247642215E-16,10.922));
#1279=CARTESIAN_POINT('',(-1.500000048,1.83697025750407E-16,10.668));
#1280=VECTOR('',#1594,1000.0);
#1281=CARTESIAN_POINT('',(1.93994095120016,0.0,10.922));
#1282=AXIS2_PLACEMENT_3D('',#1595,#1596,#1597);
#1283=CARTESIAN_POINT('',(1.500000048,0.0,10.668));
#1284=VECTOR('',#1598,1000.0);
#1285=CARTESIAN_POINT('',(2.15991140280008,0.0,10.287));
#1286=CARTESIAN_POINT('',(1.500000048,1.83697025750407E-16,10.668));
#1287=VECTOR('',#1599,1000.0);
#1288=CARTESIAN_POINT('',(-2.15991140280008,2.64512858588098E-16,10.287));
#1289=AXIS2_PLACEMENT_3D('',#1600,#1601,#1602);
#1290=CARTESIAN_POINT('',(-1.500000048,0.0,10.668));
#1291=VECTOR('',#1603,1000.0);
#1292=CARTESIAN_POINT('',(1.500000048,2.24104942169248E-16,9.906));
#1293=CARTESIAN_POINT('',(-1.500000048,0.0,9.906));
#1294=AXIS2_PLACEMENT_3D('',#1604,#1605,#1606);
#1295=CARTESIAN_POINT('',(-1.500000048,1.83697025750407E-16,9.906));
#1296=VECTOR('',#1607,1000.0);
#1297=CARTESIAN_POINT('',(1.500000048,0.0,9.906));
#1298=VECTOR('',#1608,1000.0);
#1299=CARTESIAN_POINT('',(2.1599114028,0.0,9.525));
#1300=CARTESIAN_POINT('',(1.500000048,1.83697025750407E-16,9.906));
#1301=VECTOR('',#1609,1000.0);
#1302=CARTESIAN_POINT('',(-2.1599114028,2.6451285858809E-16,9.525));
#1303=AXIS2_PLACEMENT_3D('',#1610,#1611,#1612);
#1304=CARTESIAN_POINT('',(-1.500000048,0.0,9.906));
#1305=VECTOR('',#1613,1000.0);
#1306=CARTESIAN_POINT('',(1.500000048,0.0,1.25192883775176E-16));
#1307=CARTESIAN_POINT('',(-1.500000048,2.24104942169241E-16,1.25192883775176E-16));
#1308=AXIS2_PLACEMENT_3D('',#1614,#1615,#1616);
#1309=CARTESIAN_POINT('',(-2.15991140280013,2.64512858588105E-16,0.381000000000076));
#1310=CARTESIAN_POINT('',(-1.500000048,1.83697025750407E-16,0.0));
#1311=VECTOR('',#1617,1000.0);
#1312=CARTESIAN_POINT('',(2.64512858588073E-16,-2.15991140279987,0.381000000000076));
#1313=AXIS2_PLACEMENT_3D('',#1618,#1619,#1620);
#1314=CARTESIAN_POINT('',(2.15991140280013,0.0,0.381000000000076));
#1315=AXIS2_PLACEMENT_3D('',#1621,#1622,#1623);
#1316=CARTESIAN_POINT('',(1.500000048,0.0,0.0));
#1317=VECTOR('',#1624,1000.0);
#1318=CARTESIAN_POINT('',(1.500000048,2.24104942169244E-16,9.144));
#1319=CARTESIAN_POINT('',(-1.500000048,0.0,9.144));
#1320=AXIS2_PLACEMENT_3D('',#1625,#1626,#1627);
#1321=CARTESIAN_POINT('',(-1.500000048,1.83697025750407E-16,9.144));
#1322=VECTOR('',#1628,1000.0);
#1323=CARTESIAN_POINT('',(1.500000048,0.0,9.144));
#1324=VECTOR('',#1629,1000.0);
#1325=CARTESIAN_POINT('',(2.24104942169259E-16,1.500000048,0.76200000000004));
#1326=CARTESIAN_POINT('',(0.0,-1.500000048,0.76200000000004));
#1327=AXIS2_PLACEMENT_3D('',#1630,#1631,#1632);
#1328=CARTESIAN_POINT('',(1.83697025750407E-16,-1.500000048,0.762));
#1329=VECTOR('',#1633,1000.0);
#1330=CARTESIAN_POINT('',(0.0,2.15991140279987,0.381000000000076));
#1331=AXIS2_PLACEMENT_3D('',#1634,#1635,#1636);
#1332=CARTESIAN_POINT('',(0.0,1.500000048,0.762));
#1333=VECTOR('',#1637,1000.0);
#1334=CARTESIAN_POINT('',(2.15991140280006,2.64512858588097E-16,8.763));
#1335=CARTESIAN_POINT('',(1.500000048,1.83697025750407E-16,9.144));
#1336=VECTOR('',#1638,1000.0);
#1337=CARTESIAN_POINT('',(0.0,-2.15991140279994,8.763));
#1338=AXIS2_PLACEMENT_3D('',#1639,#1640,#1641);
#1339=CARTESIAN_POINT('',(-2.15991140280006,0.0,8.763));
#1340=AXIS2_PLACEMENT_3D('',#1642,#1643,#1644);
#1341=CARTESIAN_POINT('',(-1.500000048,0.0,9.144));
#1342=VECTOR('',#1645,1000.0);
#1343=CARTESIAN_POINT('',(0.0,2.15991140280018,1.14299999999989));
#1344=CARTESIAN_POINT('',(1.83697025750407E-16,1.500000048,0.762));
#1345=VECTOR('',#1646,1000.0);
#1346=CARTESIAN_POINT('',(2.64512858588112E-16,-2.15991140280018,1.14299999999989));
#1347=AXIS2_PLACEMENT_3D('',#1647,#1648,#1649);
#1348=CARTESIAN_POINT('',(0.0,-1.500000048,0.762));
#1349=VECTOR('',#1650,1000.0);
#1350=CARTESIAN_POINT('',(2.24104942169252E-16,-1.500000048,8.382));
#1351=CARTESIAN_POINT('',(0.0,1.500000048,8.382));
#1352=AXIS2_PLACEMENT_3D('',#1651,#1652,#1653);
#1353=CARTESIAN_POINT('',(2.64512858588081E-16,2.15991140279994,8.763));
#1354=CARTESIAN_POINT('',(1.83697025750407E-16,1.500000048,8.382));
#1355=VECTOR('',#1654,1000.0);
#1356=AXIS2_PLACEMENT_3D('',#1655,#1656,#1657);
#1357=CARTESIAN_POINT('',(0.0,-1.500000048,8.382));
#1358=VECTOR('',#1658,1000.0);
#1359=CARTESIAN_POINT('',(2.24104942169255E-16,1.500000048,1.52399999999997));
#1360=CARTESIAN_POINT('',(0.0,-1.500000048,1.52399999999997));
#1361=AXIS2_PLACEMENT_3D('',#1659,#1660,#1661);
#1362=CARTESIAN_POINT('',(1.83697025750407E-16,-1.500000048,1.524));
#1363=VECTOR('',#1662,1000.0);
#1364=CARTESIAN_POINT('',(0.0,1.500000048,1.524));
#1365=VECTOR('',#1663,1000.0);
#1366=CARTESIAN_POINT('',(2.64512858588082E-16,-2.15991140279995,8.001));
#1367=CARTESIAN_POINT('',(1.83697025750407E-16,-1.500000048,8.382));
#1368=VECTOR('',#1664,1000.0);
#1369=CARTESIAN_POINT('',(-2.15991140280006,2.64512858588096E-16,8.001));
#1370=AXIS2_PLACEMENT_3D('',#1665,#1666,#1667);
#1371=CARTESIAN_POINT('',(0.0,2.15991140279995,8.001));
#1372=AXIS2_PLACEMENT_3D('',#1668,#1669,#1670);
#1373=CARTESIAN_POINT('',(0.0,1.500000048,8.382));
#1374=VECTOR('',#1671,1000.0);
#1375=CARTESIAN_POINT('',(2.64512858588075E-16,2.15991140279989,1.90499999999993));
#1376=CARTESIAN_POINT('',(1.83697025750407E-16,1.500000048,1.524));
#1377=VECTOR('',#1672,1000.0);
#1378=CARTESIAN_POINT('',(-2.15991140280012,0.0,1.90499999999993));
#1379=AXIS2_PLACEMENT_3D('',#1673,#1674,#1675);
#1380=CARTESIAN_POINT('',(0.0,-2.15991140279989,1.90499999999993));
#1381=AXIS2_PLACEMENT_3D('',#1676,#1677,#1678);
#1382=CARTESIAN_POINT('',(0.0,-1.500000048,1.524));
#1383=VECTOR('',#1679,1000.0);
#1384=CARTESIAN_POINT('',(1.500000048,2.24104942169247E-16,7.62));
#1385=CARTESIAN_POINT('',(-1.500000048,0.0,7.62));
#1386=AXIS2_PLACEMENT_3D('',#1680,#1681,#1682);
#1387=CARTESIAN_POINT('',(-1.500000048,1.83697025750407E-16,7.62));
#1388=VECTOR('',#1683,1000.0);
#1389=CARTESIAN_POINT('',(2.15991140280006,0.0,8.001));
#1390=AXIS2_PLACEMENT_3D('',#1684,#1685,#1686);
#1391=CARTESIAN_POINT('',(1.500000048,0.0,7.62));
#1392=VECTOR('',#1687,1000.0);
#1393=CARTESIAN_POINT('',(-1.500000048,2.24104942169251E-16,2.286));
#1394=CARTESIAN_POINT('',(1.500000048,0.0,2.286));
#1395=AXIS2_PLACEMENT_3D('',#1688,#1689,#1690);
#1396=CARTESIAN_POINT('',(2.15991140280012,2.64512858588103E-16,1.90499999999993));
#1397=CARTESIAN_POINT('',(1.500000048,1.83697025750407E-16,2.286));
#1398=VECTOR('',#1691,1000.0);
#1399=AXIS2_PLACEMENT_3D('',#1692,#1693,#1694);
#1400=CARTESIAN_POINT('',(-1.500000048,0.0,2.286));
#1401=VECTOR('',#1695,1000.0);
#1402=CARTESIAN_POINT('',(2.15991140279999,0.0,7.239));
#1403=CARTESIAN_POINT('',(1.500000048,1.83697025750407E-16,7.62));
#1404=VECTOR('',#1696,1000.0);
#1405=CARTESIAN_POINT('',(-2.15991140279999,2.64512858588087E-16,7.239));
#1406=AXIS2_PLACEMENT_3D('',#1697,#1698,#1699);
#1407=CARTESIAN_POINT('',(-1.500000048,0.0,7.62));
#1408=VECTOR('',#1700,1000.0);
#1409=CARTESIAN_POINT('',(-2.15991140279996,2.64512858588083E-16,2.667));
#1410=CARTESIAN_POINT('',(-1.500000048,1.83697025750407E-16,2.286));
#1411=VECTOR('',#1701,1000.0);
#1412=CARTESIAN_POINT('',(2.64512858588094E-16,-2.15991140280005,2.667));
#1413=AXIS2_PLACEMENT_3D('',#1702,#1703,#1704);
#1414=CARTESIAN_POINT('',(2.15991140279996,0.0,2.667));
#1415=AXIS2_PLACEMENT_3D('',#1705,#1706,#1707);
#1416=CARTESIAN_POINT('',(1.500000048,0.0,2.286));
#1417=VECTOR('',#1708,1000.0);
#1418=CARTESIAN_POINT('',(1.500000048,2.24104942169243E-16,6.858));
#1419=CARTESIAN_POINT('',(-1.500000048,0.0,6.858));
#1420=AXIS2_PLACEMENT_3D('',#1709,#1710,#1711);
#1421=CARTESIAN_POINT('',(-1.500000048,1.83697025750407E-16,6.858));
#1422=VECTOR('',#1712,1000.0);
#1423=CARTESIAN_POINT('',(1.500000048,0.0,6.858));
#1424=VECTOR('',#1713,1000.0);
#1425=CARTESIAN_POINT('',(2.24104942169247E-16,1.500000048,3.04800000000005));
#1426=CARTESIAN_POINT('',(0.0,-1.500000048,3.04800000000005));
#1427=AXIS2_PLACEMENT_3D('',#1714,#1715,#1716);
#1428=CARTESIAN_POINT('',(1.83697025750407E-16,-1.500000048,3.048));
#1429=VECTOR('',#1717,1000.0);
#1430=CARTESIAN_POINT('',(0.0,2.15991140280005,2.667));
#1431=AXIS2_PLACEMENT_3D('',#1718,#1719,#1720);
#1432=CARTESIAN_POINT('',(0.0,1.500000048,3.048));
#1433=VECTOR('',#1721,1000.0);
#1434=CARTESIAN_POINT('',(2.15991140280008,2.64512858588099E-16,6.477));
#1435=CARTESIAN_POINT('',(1.500000048,1.83697025750407E-16,6.858));
#1436=VECTOR('',#1722,1000.0);
#1437=CARTESIAN_POINT('',(0.0,-2.15991140279992,6.477));
#1438=AXIS2_PLACEMENT_3D('',#1723,#1724,#1725);
#1439=CARTESIAN_POINT('',(-2.15991140280008,0.0,6.477));
#1440=AXIS2_PLACEMENT_3D('',#1726,#1727,#1728);
#1441=CARTESIAN_POINT('',(-1.500000048,0.0,6.858));
#1442=VECTOR('',#1729,1000.0);
#1443=CARTESIAN_POINT('',(2.64512858588092E-16,2.15991140280003,3.429));
#1444=CARTESIAN_POINT('',(1.83697025750407E-16,1.500000048,3.048));
#1445=VECTOR('',#1730,1000.0);
#1446=CARTESIAN_POINT('',(-2.15991140279997,0.0,3.429));
#1447=AXIS2_PLACEMENT_3D('',#1731,#1732,#1733);
#1448=CARTESIAN_POINT('',(0.0,-2.15991140280003,3.429));
#1449=AXIS2_PLACEMENT_3D('',#1734,#1735,#1736);
#1450=CARTESIAN_POINT('',(0.0,-1.500000048,3.048));
#1451=VECTOR('',#1737,1000.0);
#1452=CARTESIAN_POINT('',(2.24104942169251E-16,-1.500000048,6.096));
#1453=CARTESIAN_POINT('',(0.0,1.500000048,6.096));
#1454=AXIS2_PLACEMENT_3D('',#1738,#1739,#1740);
#1455=CARTESIAN_POINT('',(2.64512858588079E-16,2.15991140279992,6.477));
#1456=CARTESIAN_POINT('',(1.83697025750407E-16,1.500000048,6.096));
#1457=VECTOR('',#1741,1000.0);
#1458=AXIS2_PLACEMENT_3D('',#1742,#1743,#1744);
#1459=CARTESIAN_POINT('',(0.0,-1.500000048,6.096));
#1460=VECTOR('',#1745,1000.0);
#1461=CARTESIAN_POINT('',(-1.500000048,2.24104942169242E-16,3.81));
#1462=CARTESIAN_POINT('',(1.500000048,0.0,3.81));
#1463=AXIS2_PLACEMENT_3D('',#1746,#1747,#1748);
#1464=CARTESIAN_POINT('',(2.15991140279997,2.64512858588086E-16,3.429));
#1465=CARTESIAN_POINT('',(1.500000048,1.83697025750407E-16,3.81));
#1466=VECTOR('',#1749,1000.0);
#1467=AXIS2_PLACEMENT_3D('',#1750,#1751,#1752);
#1468=CARTESIAN_POINT('',(-1.500000048,0.0,3.81));
#1469=VECTOR('',#1753,1000.0);
#1470=CARTESIAN_POINT('',(2.64512858588084E-16,-2.15991140279996,5.715));
#1471=CARTESIAN_POINT('',(1.83697025750407E-16,-1.500000048,6.096));
#1472=VECTOR('',#1754,1000.0);
#1473=CARTESIAN_POINT('',(-2.15991140280005,2.64512858588094E-16,5.715));
#1474=AXIS2_PLACEMENT_3D('',#1755,#1756,#1757);
#1475=CARTESIAN_POINT('',(0.0,2.15991140279996,5.715));
#1476=AXIS2_PLACEMENT_3D('',#1758,#1759,#1760);
#1477=CARTESIAN_POINT('',(0.0,1.500000048,6.096));
#1478=VECTOR('',#1761,1000.0);
#1479=CARTESIAN_POINT('',(-2.1599114027999,0.0,4.19100000000005));
#1480=CARTESIAN_POINT('',(-1.500000048,1.83697025750407E-16,3.81));
#1481=VECTOR('',#1762,1000.0);
#1482=CARTESIAN_POINT('',(2.1599114027999,2.64512858588077E-16,4.19100000000005));
#1483=AXIS2_PLACEMENT_3D('',#1763,#1764,#1765);
#1484=CARTESIAN_POINT('',(1.500000048,0.0,3.81));
#1485=VECTOR('',#1766,1000.0);
#1486=CARTESIAN_POINT('',(1.500000048,2.24104942169246E-16,5.334));
#1487=CARTESIAN_POINT('',(-1.500000048,0.0,5.334));
#1488=AXIS2_PLACEMENT_3D('',#1767,#1768,#1769);
#1489=CARTESIAN_POINT('',(-1.500000048,1.83697025750407E-16,5.334));
#1490=VECTOR('',#1770,1000.0);
#1491=CARTESIAN_POINT('',(2.15991140280005,0.0,5.715));
#1492=AXIS2_PLACEMENT_3D('',#1771,#1772,#1773);
#1493=CARTESIAN_POINT('',(1.500000048,0.0,5.334));
#1494=VECTOR('',#1774,1000.0);
#1495=CARTESIAN_POINT('',(-1.500000048,2.24104942169248E-16,4.572));
#1496=CARTESIAN_POINT('',(1.500000048,0.0,4.572));
#1497=AXIS2_PLACEMENT_3D('',#1775,#1776,#1777);
#1498=CARTESIAN_POINT('',(1.500000048,1.83697025750407E-16,4.572));
#1499=VECTOR('',#1778,1000.0);
#1500=CARTESIAN_POINT('',(-1.500000048,0.0,4.572));
#1501=VECTOR('',#1779,1000.0);
#1502=CARTESIAN_POINT('',(2.15991140279997,0.0,4.953));
#1503=CARTESIAN_POINT('',(1.500000048,1.83697025750407E-16,5.334));
#1504=VECTOR('',#1780,1000.0);
#1505=CARTESIAN_POINT('',(-2.15991140279997,2.64512858588085E-16,4.953));
#1506=AXIS2_PLACEMENT_3D('',#1781,#1782,#1783);
#1507=CARTESIAN_POINT('',(-1.500000048,0.0,5.334));
#1508=VECTOR('',#1784,1000.0);
#1509=CARTESIAN_POINT('',(-1.500000048,1.83697025750407E-16,4.572));
#1510=VECTOR('',#1785,1000.0);
#1511=CARTESIAN_POINT('',(1.500000048,0.0,4.572));
#1512=VECTOR('',#1786,1000.0);
#1513=AXIS2_PLACEMENT_3D('',#1787,#1788,#1789);
#1514=AXIS2_PLACEMENT_3D('',#1790,#1791,#1792);
#1515=CARTESIAN_POINT('',(-1.61311665708216,-2.794,10.922));
#1516=CARTESIAN_POINT('',(1.61311665708216,-2.794,10.922));
#1517=CARTESIAN_POINT('',(0.0,-2.794,10.922));
#1518=VECTOR('',#1793,1000.0);
#1519=CARTESIAN_POINT('',(3.22623330253844,6.2014353979984E-10,10.922));
#1520=CARTESIAN_POINT('',(1.61311665216432,-2.794,10.922));
#1521=VECTOR('',#1794,1000.0);
#1522=CARTESIAN_POINT('',(1.61311665708216,2.794,10.922));
#1523=CARTESIAN_POINT('',(3.22623330432864,0.0,10.922));
#1524=VECTOR('',#1795,1000.0);
#1525=CARTESIAN_POINT('',(-1.61311665708216,2.794,10.922));
#1526=CARTESIAN_POINT('',(0.0,2.794,10.922));
#1527=VECTOR('',#1796,1000.0);
#1528=CARTESIAN_POINT('',(-3.22623330253844,-6.2014353979984E-10,10.922));
#1529=CARTESIAN_POINT('',(-1.61311665216432,2.794,10.922));
#1530=VECTOR('',#1797,1000.0);
#1531=CARTESIAN_POINT('',(-3.22623330432864,0.0,10.922));
#1532=VECTOR('',#1798,1000.0);
#1533=AXIS2_PLACEMENT_3D('',#1799,#1800,#1801);
#1534=CARTESIAN_POINT('',(3.22623329957695,-7.88452853353605E-10,0.0));
#1535=CARTESIAN_POINT('',(3.2262332986,0.0,5.461));
#1536=VECTOR('',#1802,1000.0);
#1537=CARTESIAN_POINT('',(1.61311665954108,-2.794,0.0));
#1538=CARTESIAN_POINT('',(1.613116662,-2.794,5.461));
#1539=VECTOR('',#1803,1000.0);
#1540=CARTESIAN_POINT('',(2.4196749803,-1.397,0.0));
#1541=VECTOR('',#1804,1000.0);
#1542=CARTESIAN_POINT('',(-1.61311665954108,-2.794,0.0));
#1543=CARTESIAN_POINT('',(-1.613116662,-2.794,5.461));
#1544=VECTOR('',#1805,1000.0);
#1545=CARTESIAN_POINT('',(0.0,-2.794,0.0));
#1546=VECTOR('',#1806,1000.0);
#1547=CARTESIAN_POINT('',(-3.22623329957694,7.88452853353605E-10,0.0));
#1548=CARTESIAN_POINT('',(-3.2262332986,0.0,5.461));
#1549=VECTOR('',#1807,1000.0);
#1550=CARTESIAN_POINT('',(-2.4196749803,-1.397,0.0));
#1551=VECTOR('',#1808,1000.0);
#1552=CARTESIAN_POINT('',(-1.61311665954108,2.794,0.0));
#1553=CARTESIAN_POINT('',(-1.613116662,2.794,5.461));
#1554=VECTOR('',#1809,1000.0);
#1555=CARTESIAN_POINT('',(-2.4196749803,1.397,0.0));
#1556=VECTOR('',#1810,1000.0);
#1557=CARTESIAN_POINT('',(1.61311665954108,2.794,0.0));
#1558=CARTESIAN_POINT('',(1.613116662,2.794,5.461));
#1559=VECTOR('',#1811,1000.0);
#1560=CARTESIAN_POINT('',(0.0,2.794,0.0));
#1561=VECTOR('',#1812,1000.0);
#1562=CARTESIAN_POINT('',(2.4196749803,1.397,0.0));
#1563=VECTOR('',#1813,1000.0);
#1564=AXIS2_PLACEMENT_3D('',#1814,#1815,#1816);
#1565=AXIS2_PLACEMENT_3D('',#1817,#1818,#1819);
#1566=AXIS2_PLACEMENT_3D('',#1820,#1821,#1822);
#1567=AXIS2_PLACEMENT_3D('',#1823,#1824,#1825);
#1568=AXIS2_PLACEMENT_3D('',#1826,#1827,#1828);
#1569=AXIS2_PLACEMENT_3D('',#1829,#1830,#1831);
#1570=AXIS2_PLACEMENT_3D('',#1832,#1833,#1834);
#1571=AXIS2_PLACEMENT_3D('',#1835,#1836,#1837);
#1572=AXIS2_PLACEMENT_3D('',#1838,#1839,#1840);
#1573=AXIS2_PLACEMENT_3D('',#1841,#1842,#1843);
#1574=AXIS2_PLACEMENT_3D('',#1844,#1845,#1846);
#1575=AXIS2_PLACEMENT_3D('',#1847,#1848,#1849);
#1576=AXIS2_PLACEMENT_3D('',#1850,#1851,#1852);
#1577=AXIS2_PLACEMENT_3D('',#1853,#1854,#1855);
#1578=AXIS2_PLACEMENT_3D('',#1856,#1857,#1858);
#1579=AXIS2_PLACEMENT_3D('',#1859,#1860,#1861);
#1580=AXIS2_PLACEMENT_3D('',#1862,#1863,#1864);
#1581=AXIS2_PLACEMENT_3D('',#1865,#1866,#1867);
#1582=AXIS2_PLACEMENT_3D('',#1868,#1869,#1870);
#1583=AXIS2_PLACEMENT_3D('',#1871,#1872,#1873);
#1584=AXIS2_PLACEMENT_3D('',#1874,#1875,#1876);
#1585=AXIS2_PLACEMENT_3D('',#1877,#1878,#1879);
#1586=AXIS2_PLACEMENT_3D('',#1880,#1881,#1882);
#1587=AXIS2_PLACEMENT_3D('',#1883,#1884,#1885);
#1588=AXIS2_PLACEMENT_3D('',#1886,#1887,#1888);
#1589=AXIS2_PLACEMENT_3D('',#1889,#1890,#1891);
#1590=AXIS2_PLACEMENT_3D('',#1892,#1893,#1894);
#1591=CARTESIAN_POINT('',(0.0,0.0,10.668));
#1592=DIRECTION('',(-5.78241140155219E-15,0.0,-1.0));
#1593=DIRECTION('',(1.0,0.0,-5.78241140155219E-15));
#1594=DIRECTION('',(-0.866025402838328,1.06057523756626E-16,0.500000001638711));
#1595=CARTESIAN_POINT('',(0.0,0.0,10.922));
#1596=DIRECTION('',(0.0,0.0,1.0));
#1597=DIRECTION('',(1.0,0.0,0.0));
#1598=DIRECTION('',(0.866025402838328,0.0,0.500000001638711));
#1599=DIRECTION('',(0.866025402838328,1.06057523756626E-16,-0.500000001638711));
#1600=CARTESIAN_POINT('',(0.0,0.0,10.287));
#1601=DIRECTION('',(2.08817872422582E-14,0.0,-1.0));
#1602=DIRECTION('',(-1.0,0.0,-2.08817872422582E-14));
#1603=DIRECTION('',(-0.866025402838328,0.0,-0.500000001638711));
#1604=CARTESIAN_POINT('',(0.0,0.0,9.906));
#1605=DIRECTION('',(2.19731633258983E-14,0.0,-1.0));
#1606=DIRECTION('',(1.0,0.0,2.19731633258983E-14));
#1607=DIRECTION('',(-0.86602540283833,1.06057523756626E-16,0.500000001638708));
#1608=DIRECTION('',(0.86602540283833,0.0,0.500000001638708));
#1609=DIRECTION('',(0.866025402838328,1.06057523756626E-16,-0.500000001638711));
#1610=CARTESIAN_POINT('',(0.0,0.0,9.525));
#1611=DIRECTION('',(1.60629132632755E-15,0.0,-1.0));
#1612=DIRECTION('',(-1.0,0.0,-1.60629132632755E-15));
#1613=DIRECTION('',(-0.866025402838328,0.0,-0.500000001638711));
#1614=CARTESIAN_POINT('',(0.0,0.0,1.25192883775176E-16));
#1615=DIRECTION('',(0.0,0.0,-1.0));
#1616=DIRECTION('',(1.0,0.0,0.0));
#1617=DIRECTION('',(-0.866025402838329,1.06057523756626E-16,0.50000000163871));
#1618=CARTESIAN_POINT('',(0.0,0.0,0.381000000000076));
#1619=DIRECTION('',(3.50121312535458E-14,0.0,1.0));
#1620=DIRECTION('',(1.0,0.0,-3.50121312535458E-14));
#1621=CARTESIAN_POINT('',(0.0,0.0,0.381000000000076));
#1622=DIRECTION('',(3.50121312535458E-14,0.0,1.0));
#1623=DIRECTION('',(1.0,0.0,-3.50121312535458E-14));
#1624=DIRECTION('',(0.866025402838329,0.0,0.50000000163871));
#1625=CARTESIAN_POINT('',(0.0,0.0,9.144));
#1626=DIRECTION('',(-2.65990924471401E-14,0.0,-1.0));
#1627=DIRECTION('',(1.0,0.0,-2.65990924471401E-14));
#1628=DIRECTION('',(-0.866025402838328,1.06057523756626E-16,0.500000001638711));
#1629=DIRECTION('',(0.866025402838328,0.0,0.500000001638711));
#1630=CARTESIAN_POINT('',(0.0,0.0,0.76200000000004));
#1631=DIRECTION('',(-2.68159328746983E-14,0.0,1.0));
#1632=DIRECTION('',(-1.0,0.0,-2.68159328746983E-14));
#1633=DIRECTION('',(1.06057523756626E-16,-0.866025402838329,-0.50000000163871));
#1634=CARTESIAN_POINT('',(0.0,0.0,0.381000000000076));
#1635=DIRECTION('',(3.50121312535458E-14,0.0,1.0));
#1636=DIRECTION('',(1.0,0.0,-3.50121312535458E-14));
#1637=DIRECTION('',(0.0,0.866025402838329,-0.50000000163871));
#1638=DIRECTION('',(0.86602540283833,1.06057523756626E-16,-0.500000001638708));
#1639=CARTESIAN_POINT('',(0.0,0.0,8.763));
#1640=DIRECTION('',(-1.76692045896031E-14,0.0,-1.0));
#1641=DIRECTION('',(-1.0,0.0,1.76692045896031E-14));
#1642=CARTESIAN_POINT('',(0.0,0.0,8.763));
#1643=DIRECTION('',(-1.76692045896031E-14,0.0,-1.0));
#1644=DIRECTION('',(-1.0,0.0,1.76692045896031E-14));
#1645=DIRECTION('',(-0.86602540283833,0.0,-0.500000001638708));
#1646=DIRECTION('',(1.06057523756626E-16,0.866025402838329,0.50000000163871));
#1647=CARTESIAN_POINT('',(0.0,0.0,1.14299999999989));
#1648=DIRECTION('',(-4.91926718687813E-14,0.0,1.0));
#1649=DIRECTION('',(1.0,0.0,4.91926718687813E-14));
#1650=DIRECTION('',(0.0,-0.866025402838329,0.50000000163871));
#1651=CARTESIAN_POINT('',(0.0,0.0,8.382));
#1652=DIRECTION('',(1.15648228031044E-15,0.0,-1.0));
#1653=DIRECTION('',(1.0,0.0,1.15648228031044E-15));
#1654=DIRECTION('',(1.06057523756626E-16,0.866025402838329,0.50000000163871));
#1655=CARTESIAN_POINT('',(0.0,0.0,8.763));
#1656=DIRECTION('',(-1.76692045896031E-14,0.0,-1.0));
#1657=DIRECTION('',(-1.0,0.0,1.76692045896031E-14));
#1658=DIRECTION('',(0.0,-0.866025402838328,0.500000001638711));
#1659=CARTESIAN_POINT('',(0.0,0.0,1.52399999999997));
#1660=DIRECTION('',(2.03830001904715E-14,0.0,1.0));
#1661=DIRECTION('',(-1.0,0.0,2.03830001904715E-14));
#1662=DIRECTION('',(1.06057523756626E-16,-0.866025402838329,-0.50000000163871));
#1663=DIRECTION('',(0.0,0.866025402838329,-0.50000000163871));
#1664=DIRECTION('',(1.06057523756626E-16,-0.86602540283833,-0.500000001638709));
#1665=CARTESIAN_POINT('',(0.0,0.0,8.001));
#1666=DIRECTION('',(1.52597676001117E-14,0.0,-1.0));
#1667=DIRECTION('',(-1.0,0.0,-1.52597676001117E-14));
#1668=CARTESIAN_POINT('',(0.0,0.0,8.001));
#1669=DIRECTION('',(1.52597676001117E-14,0.0,-1.0));
#1670=DIRECTION('',(-1.0,0.0,-1.52597676001117E-14));
#1671=DIRECTION('',(0.0,0.866025402838329,-0.50000000163871));
#1672=DIRECTION('',(1.06057523756626E-16,0.866025402838329,0.50000000163871));
#1673=CARTESIAN_POINT('',(0.0,0.0,1.90499999999993));
#1674=DIRECTION('',(-3.05195352002235E-14,0.0,1.0));
#1675=DIRECTION('',(1.0,0.0,3.05195352002235E-14));
#1676=CARTESIAN_POINT('',(0.0,0.0,1.90499999999993));
#1677=DIRECTION('',(-3.05195352002235E-14,0.0,1.0));
#1678=DIRECTION('',(1.0,0.0,3.05195352002235E-14));
#1679=DIRECTION('',(0.0,-0.866025402838329,0.50000000163871));
#1680=CARTESIAN_POINT('',(0.0,0.0,7.62));
#1681=DIRECTION('',(2.77555747274505E-14,0.0,-1.0));
#1682=DIRECTION('',(1.0,0.0,2.77555747274505E-14));
#1683=DIRECTION('',(-0.866025402838328,1.06057523756626E-16,0.500000001638711));
#1684=CARTESIAN_POINT('',(0.0,0.0,8.001));
#1685=DIRECTION('',(1.52597676001117E-14,0.0,-1.0));
#1686=DIRECTION('',(-1.0,0.0,-1.52597676001117E-14));
#1687=DIRECTION('',(0.866025402838328,0.0,0.500000001638711));
#1688=CARTESIAN_POINT('',(0.0,0.0,2.286));
#1689=DIRECTION('',(-6.36065254170741E-15,0.0,1.0));
#1690=DIRECTION('',(-1.0,0.0,-6.36065254170741E-15));
#1691=DIRECTION('',(0.866025402838329,1.06057523756626E-16,-0.50000000163871));
#1692=CARTESIAN_POINT('',(0.0,0.0,1.90499999999993));
#1693=DIRECTION('',(-3.05195352002235E-14,0.0,1.0));
#1694=DIRECTION('',(1.0,0.0,3.05195352002235E-14));
#1695=DIRECTION('',(-0.866025402838329,0.0,-0.50000000163871));
#1696=DIRECTION('',(0.866025402838329,1.06057523756626E-16,-0.50000000163871));
#1697=CARTESIAN_POINT('',(0.0,0.0,7.239));
#1698=DIRECTION('',(-2.81100982107321E-15,0.0,-1.0));
#1699=DIRECTION('',(-1.0,0.0,2.81100982107321E-15));
#1700=DIRECTION('',(-0.866025402838329,0.0,-0.50000000163871));
#1701=DIRECTION('',(-0.866025402838329,1.06057523756626E-16,0.50000000163871));
#1702=CARTESIAN_POINT('',(0.0,0.0,2.667));
#1703=DIRECTION('',(-1.18463985316657E-14,0.0,1.0));
#1704=DIRECTION('',(1.0,0.0,1.18463985316657E-14));
#1705=CARTESIAN_POINT('',(0.0,0.0,2.667));
#1706=DIRECTION('',(-1.18463985316657E-14,0.0,1.0));
#1707=DIRECTION('',(1.0,0.0,1.18463985316657E-14));
#1708=DIRECTION('',(0.866025402838329,0.0,0.50000000163871));
#1709=CARTESIAN_POINT('',(0.0,0.0,6.858));
#1710=DIRECTION('',(-1.96601987652774E-14,0.0,-1.0));
#1711=DIRECTION('',(1.0,0.0,-1.96601987652774E-14));
#1712=DIRECTION('',(-0.866025402838329,1.06057523756626E-16,0.50000000163871));
#1713=DIRECTION('',(0.866025402838329,0.0,0.50000000163871));
#1714=CARTESIAN_POINT('',(0.0,0.0,3.04800000000005));
#1715=DIRECTION('',(-3.35379861290027E-14,0.0,1.0));
#1716=DIRECTION('',(-1.0,0.0,-3.35379861290027E-14));
#1717=DIRECTION('',(1.06057523756626E-16,-0.866025402838329,-0.50000000163871));
#1718=CARTESIAN_POINT('',(0.0,0.0,2.667));
#1719=DIRECTION('',(-1.18463985316657E-14,0.0,1.0));
#1720=DIRECTION('',(1.0,0.0,1.18463985316657E-14));
#1721=DIRECTION('',(0.0,0.866025402838329,-0.50000000163871));
#1722=DIRECTION('',(0.866025402838329,1.06057523756626E-16,-0.50000000163871));
#1723=CARTESIAN_POINT('',(0.0,0.0,6.477));
#1724=DIRECTION('',(-2.128336007384E-14,0.0,-1.0));
#1725=DIRECTION('',(-1.0,0.0,2.128336007384E-14));
#1726=CARTESIAN_POINT('',(0.0,0.0,6.477));
#1727=DIRECTION('',(-2.128336007384E-14,0.0,-1.0));
#1728=DIRECTION('',(-1.0,0.0,2.128336007384E-14));
#1729=DIRECTION('',(-0.866025402838329,0.0,-0.50000000163871));
#1730=DIRECTION('',(1.06057523756626E-16,0.866025402838329,0.50000000163871));
#1731=CARTESIAN_POINT('',(0.0,0.0,3.429));
#1732=DIRECTION('',(6.82673813689209E-15,0.0,1.0));
#1733=DIRECTION('',(1.0,0.0,-6.82673813689209E-15));
#1734=CARTESIAN_POINT('',(0.0,0.0,3.429));
#1735=DIRECTION('',(6.82673813689209E-15,0.0,1.0));
#1736=DIRECTION('',(1.0,0.0,-6.82673813689209E-15));
#1737=DIRECTION('',(0.0,-0.866025402838329,0.50000000163871));
#1738=CARTESIAN_POINT('',(0.0,0.0,6.096));
#1739=DIRECTION('',(6.93889368186263E-15,0.0,-1.0));
#1740=DIRECTION('',(1.0,0.0,6.93889368186263E-15));
#1741=DIRECTION('',(1.06057523756626E-16,0.866025402838329,0.50000000163871));
#1742=CARTESIAN_POINT('',(0.0,0.0,6.477));
#1743=DIRECTION('',(-2.128336007384E-14,0.0,-1.0));
#1744=DIRECTION('',(-1.0,0.0,2.128336007384E-14));
#1745=DIRECTION('',(0.0,-0.866025402838329,0.50000000163871));
#1746=CARTESIAN_POINT('',(0.0,0.0,3.81));
#1747=DIRECTION('',(1.38777873637253E-14,0.0,1.0));
#1748=DIRECTION('',(-1.0,0.0,1.38777873637253E-14));
#1749=DIRECTION('',(0.866025402838329,1.06057523756626E-16,-0.50000000163871));
#1750=CARTESIAN_POINT('',(0.0,0.0,3.429));
#1751=DIRECTION('',(6.82673813689209E-15,0.0,1.0));
#1752=DIRECTION('',(1.0,0.0,-6.82673813689209E-15));
#1753=DIRECTION('',(-0.866025402838329,0.0,-0.50000000163871));
#1754=DIRECTION('',(1.06057523756626E-16,-0.86602540283833,-0.500000001638709));
#1755=CARTESIAN_POINT('',(0.0,0.0,5.715));
#1756=DIRECTION('',(1.12440392842929E-14,0.0,-1.0));
#1757=DIRECTION('',(-1.0,0.0,-1.12440392842929E-14));
#1758=CARTESIAN_POINT('',(0.0,0.0,5.715));
#1759=DIRECTION('',(1.12440392842929E-14,0.0,-1.0));
#1760=DIRECTION('',(-1.0,0.0,-1.12440392842929E-14));
#1761=DIRECTION('',(0.0,0.866025402838329,-0.50000000163871));
#1762=DIRECTION('',(-0.866025402838329,1.06057523756626E-16,0.50000000163871));
#1763=CARTESIAN_POINT('',(0.0,0.0,4.19100000000005));
#1764=DIRECTION('',(2.52990883896589E-14,0.0,1.0));
#1765=DIRECTION('',(1.0,0.0,-2.52990883896589E-14));
#1766=DIRECTION('',(0.866025402838329,0.0,0.50000000163871));
#1767=CARTESIAN_POINT('',(0.0,0.0,5.334));
#1768=DIRECTION('',(3.41162272691579E-14,0.0,-1.0));
#1769=DIRECTION('',(1.0,0.0,3.41162272691579E-14));
#1770=DIRECTION('',(-0.866025402838329,1.06057523756626E-16,0.50000000163871));
#1771=CARTESIAN_POINT('',(0.0,0.0,5.715));
#1772=DIRECTION('',(1.12440392842929E-14,0.0,-1.0));
#1773=DIRECTION('',(-1.0,0.0,-1.12440392842929E-14));
#1774=DIRECTION('',(0.866025402838329,0.0,0.50000000163871));
#1775=CARTESIAN_POINT('',(0.0,0.0,4.572));
#1776=DIRECTION('',(-1.329954622357E-14,0.0,1.0));
#1777=DIRECTION('',(-1.0,0.0,-1.329954622357E-14));
#1778=DIRECTION('',(0.866025402838329,1.06057523756626E-16,-0.500000001638709));
#1779=DIRECTION('',(-0.866025402838329,0.0,-0.500000001638709));
#1780=DIRECTION('',(0.866025402838329,1.06057523756626E-16,-0.500000001638709));
#1781=CARTESIAN_POINT('',(0.0,0.0,4.953));
#1782=DIRECTION('',(-7.62988380005587E-15,0.0,-1.0));
#1783=DIRECTION('',(-1.0,0.0,7.62988380005587E-15));
#1784=DIRECTION('',(-0.866025402838329,0.0,-0.500000001638709));
#1785=DIRECTION('',(-0.866025402838328,1.06057523756626E-16,0.500000001638711));
#1786=DIRECTION('',(0.866025402838328,0.0,0.500000001638711));
#1787=CARTESIAN_POINT('',(0.0,0.0,10.668));
#1788=DIRECTION('',(-5.78241140155219E-15,0.0,-1.0));
#1789=DIRECTION('',(1.0,0.0,-5.78241140155219E-15));
#1790=CARTESIAN_POINT('',(0.0,0.0,10.922));
#1791=DIRECTION('',(0.0,0.0,1.0));
#1792=DIRECTION('',(1.0,0.0,0.0));
#1793=DIRECTION('',(1.0,0.0,0.0));
#1794=DIRECTION('',(0.500000000011276,0.866025403777928,0.0));
#1795=DIRECTION('',(-0.500000000011276,0.866025403777928,0.0));
#1796=DIRECTION('',(-1.0,0.0,0.0));
#1797=DIRECTION('',(-0.500000000011276,-0.866025403777928,0.0));
#1798=DIRECTION('',(0.500000000011276,-0.866025403777928,0.0));
#1799=CARTESIAN_POINT('',(0.0,0.0,10.287));
#1800=DIRECTION('',(2.08817872422582E-14,0.0,-1.0));
#1801=DIRECTION('',(-1.0,0.0,-2.08817872422582E-14));
#1802=DIRECTION('',(0.0,0.0,-1.0));
#1803=DIRECTION('',(0.0,0.0,1.0));
#1804=DIRECTION('',(-0.499999996393051,-0.866025405866912,0.0));
#1805=DIRECTION('',(0.0,0.0,1.0));
#1806=DIRECTION('',(-1.0,0.0,0.0));
#1807=DIRECTION('',(0.0,0.0,1.0));
#1808=DIRECTION('',(-0.499999996393051,0.866025405866912,0.0));
#1809=DIRECTION('',(0.0,0.0,1.0));
#1810=DIRECTION('',(0.499999996393051,0.866025405866912,0.0));
#1811=DIRECTION('',(0.0,0.0,1.0));
#1812=DIRECTION('',(1.0,0.0,0.0));
#1813=DIRECTION('',(0.499999996393051,-0.866025405866912,0.0));
#1814=CARTESIAN_POINT('',(0.0,0.0,9.906));
#1815=DIRECTION('',(2.19731633258983E-14,0.0,-1.0));
#1816=DIRECTION('',(1.0,0.0,2.19731633258983E-14));
#1817=CARTESIAN_POINT('',(0.0,0.0,1.25192883775176E-16));
#1818=DIRECTION('',(0.0,0.0,-1.0));
#1819=DIRECTION('',(1.0,0.0,0.0));
#1820=CARTESIAN_POINT('',(0.0,0.0,9.525));
#1821=DIRECTION('',(1.60629132632755E-15,0.0,-1.0));
#1822=DIRECTION('',(-1.0,0.0,-1.60629132632755E-15));
#1823=CARTESIAN_POINT('',(0.0,0.0,0.381000000000076));
#1824=DIRECTION('',(3.50121312535458E-14,0.0,1.0));
#1825=DIRECTION('',(1.0,0.0,-3.50121312535458E-14));
#1826=CARTESIAN_POINT('',(0.0,0.0,9.144));
#1827=DIRECTION('',(-2.65990924471401E-14,0.0,-1.0));
#1828=DIRECTION('',(1.0,0.0,-2.65990924471401E-14));
#1829=CARTESIAN_POINT('',(0.0,0.0,0.76200000000004));
#1830=DIRECTION('',(-2.68159328746983E-14,0.0,1.0));
#1831=DIRECTION('',(-1.0,0.0,-2.68159328746983E-14));
#1832=CARTESIAN_POINT('',(0.0,0.0,8.763));
#1833=DIRECTION('',(-1.76692045896031E-14,0.0,-1.0));
#1834=DIRECTION('',(-1.0,0.0,1.76692045896031E-14));
#1835=CARTESIAN_POINT('',(0.0,0.0,1.14299999999989));
#1836=DIRECTION('',(-4.91926718687813E-14,0.0,1.0));
#1837=DIRECTION('',(1.0,0.0,4.91926718687813E-14));
#1838=CARTESIAN_POINT('',(0.0,0.0,8.382));
#1839=DIRECTION('',(1.15648228031044E-15,0.0,-1.0));
#1840=DIRECTION('',(1.0,0.0,1.15648228031044E-15));
#1841=CARTESIAN_POINT('',(0.0,0.0,1.52399999999997));
#1842=DIRECTION('',(2.03830001904715E-14,0.0,1.0));
#1843=DIRECTION('',(-1.0,0.0,2.03830001904715E-14));
#1844=CARTESIAN_POINT('',(0.0,0.0,8.001));
#1845=DIRECTION('',(1.52597676001117E-14,0.0,-1.0));
#1846=DIRECTION('',(-1.0,0.0,-1.52597676001117E-14));
#1847=CARTESIAN_POINT('',(0.0,0.0,1.90499999999993));
#1848=DIRECTION('',(-3.05195352002235E-14,0.0,1.0));
#1849=DIRECTION('',(1.0,0.0,3.05195352002235E-14));
#1850=CARTESIAN_POINT('',(0.0,0.0,7.62));
#1851=DIRECTION('',(2.77555747274505E-14,0.0,-1.0));
#1852=DIRECTION('',(1.0,0.0,2.77555747274505E-14));
#1853=CARTESIAN_POINT('',(0.0,0.0,2.286));
#1854=DIRECTION('',(-6.36065254170741E-15,0.0,1.0));
#1855=DIRECTION('',(-1.0,0.0,-6.36065254170741E-15));
#1856=CARTESIAN_POINT('',(0.0,0.0,7.239));
#1857=DIRECTION('',(-2.81100982107321E-15,0.0,-1.0));
#1858=DIRECTION('',(-1.0,0.0,2.81100982107321E-15));
#1859=CARTESIAN_POINT('',(0.0,0.0,2.667));
#1860=DIRECTION('',(-1.18463985316657E-14,0.0,1.0));
#1861=DIRECTION('',(1.0,0.0,1.18463985316657E-14));
#1862=CARTESIAN_POINT('',(0.0,0.0,6.858));
#1863=DIRECTION('',(-1.96601987652774E-14,0.0,-1.0));
#1864=DIRECTION('',(1.0,0.0,-1.96601987652774E-14));
#1865=CARTESIAN_POINT('',(0.0,0.0,3.04800000000005));
#1866=DIRECTION('',(-3.35379861290027E-14,0.0,1.0));
#1867=DIRECTION('',(-1.0,0.0,-3.35379861290027E-14));
#1868=CARTESIAN_POINT('',(0.0,0.0,6.477));
#1869=DIRECTION('',(-2.128336007384E-14,0.0,-1.0));
#1870=DIRECTION('',(-1.0,0.0,2.128336007384E-14));
#1871=CARTESIAN_POINT('',(0.0,0.0,3.429));
#1872=DIRECTION('',(6.82673813689209E-15,0.0,1.0));
#1873=DIRECTION('',(1.0,0.0,-6.82673813689209E-15));
#1874=CARTESIAN_POINT('',(0.0,0.0,6.096));
#1875=DIRECTION('',(6.93889368186263E-15,0.0,-1.0));
#1876=DIRECTION('',(1.0,0.0,6.93889368186263E-15));
#1877=CARTESIAN_POINT('',(0.0,0.0,3.81));
#1878=DIRECTION('',(1.38777873637253E-14,0.0,1.0));
#1879=DIRECTION('',(-1.0,0.0,1.38777873637253E-14));
#1880=CARTESIAN_POINT('',(0.0,0.0,5.715));
#1881=DIRECTION('',(1.12440392842929E-14,0.0,-1.0));
#1882=DIRECTION('',(-1.0,0.0,-1.12440392842929E-14));
#1883=CARTESIAN_POINT('',(0.0,0.0,4.19100000000005));
#1884=DIRECTION('',(2.52990883896589E-14,0.0,1.0));
#1885=DIRECTION('',(1.0,0.0,-2.52990883896589E-14));
#1886=CARTESIAN_POINT('',(0.0,0.0,5.334));
#1887=DIRECTION('',(3.41162272691579E-14,0.0,-1.0));
#1888=DIRECTION('',(1.0,0.0,3.41162272691579E-14));
#1889=CARTESIAN_POINT('',(0.0,0.0,4.572));
#1890=DIRECTION('',(-1.329954622357E-14,0.0,1.0));
#1891=DIRECTION('',(-1.0,0.0,-1.329954622357E-14));
#1892=CARTESIAN_POINT('',(0.0,0.0,4.953));
#1893=DIRECTION('',(-7.62988380005587E-15,0.0,-1.0));
#1894=DIRECTION('',(-1.0,0.0,7.62988380005587E-15));
ENDSEC;
END-ISO-10303-21;
